<?xml version="1.0" encoding="UTF-8"?>
<svg version="1.1" xmlns="http://www.w3.org/2000/svg" width="1008" height="1008">
<path d="M0 0 C36.96 0 73.92 0 112 0 C112 5.28 112 10.56 112 16 C127.84 16 143.68 16 160 16 C160 21.28 160 26.56 160 32 C165.28 32 170.56 32 176 32 C176 37.28 176 42.56 176 48 C181.28 48 186.56 48 192 48 C192 53.28 192 58.56 192 64 C197.28 64 202.56 64 208 64 C208 69.28 208 74.56 208 80 C213.28 80 218.56 80 224 80 C224 85.28 224 90.56 224 96 C229.28 96 234.56 96 240 96 C240 101.28 240 106.56 240 112 C250.56 112 261.12 112 272 112 C272 117.28 272 122.56 272 128 C282.56 128 293.12 128 304 128 C304 138.56 304 149.12 304 160 C309.28 160 314.56 160 320 160 C320 175.84 320 191.68 320 208 C314.72 208 309.44 208 304 208 C304 218.56 304 229.12 304 240 C293.44 240 282.88 240 272 240 C272 245.28 272 250.56 272 256 C261.44 256 250.88 256 240 256 C240 261.28 240 266.56 240 272 C234.72 272 229.44 272 224 272 C224 277.28 224 282.56 224 288 C218.72 288 213.44 288 208 288 C208 293.28 208 298.56 208 304 C202.72 304 197.44 304 192 304 C192 309.28 192 314.56 192 320 C186.72 320 181.44 320 176 320 C176 325.28 176 330.56 176 336 C170.72 336 165.44 336 160 336 C160 341.28 160 346.56 160 352 C175.84 352 191.68 352 208 352 C208 357.28 208 362.56 208 368 C213.28 368 218.56 368 224 368 C224 373.28 224 378.56 224 384 C234.56 384 245.12 384 256 384 C256 389.28 256 394.56 256 400 C261.28 400 266.56 400 272 400 C272 405.28 272 410.56 272 416 C287.84 416 303.68 416 320 416 C320 421.28 320 426.56 320 432 C330.56 432 341.12 432 352 432 C352 442.56 352 453.12 352 464 C357.28 464 362.56 464 368 464 C368 479.84 368 495.68 368 512 C373.28 512 378.56 512 384 512 C384 517.28 384 522.56 384 528 C389.28 528 394.56 528 400 528 C400 522.72 400 517.44 400 512 C405.28 512 410.56 512 416 512 C416 496.16 416 480.32 416 464 C410.72 464 405.44 464 400 464 C400 458.72 400 453.44 400 448 C394.72 448 389.44 448 384 448 C384 426.88 384 405.76 384 384 C389.28 384 394.56 384 400 384 C400 378.72 400 373.44 400 368 C405.28 368 410.56 368 416 368 C416 331.04 416 294.08 416 256 C405.44 256 394.88 256 384 256 C384 250.72 384 245.44 384 240 C378.72 240 373.44 240 368 240 C368 234.72 368 229.44 368 224 C362.72 224 357.44 224 352 224 C352 213.44 352 202.88 352 192 C346.72 192 341.44 192 336 192 C336 165.6 336 139.2 336 112 C341.28 112 346.56 112 352 112 C352 101.44 352 90.88 352 80 C357.28 80 362.56 80 368 80 C368 74.72 368 69.44 368 64 C373.28 64 378.56 64 384 64 C384 58.72 384 53.44 384 48 C394.56 48 405.12 48 416 48 C416 42.72 416 37.44 416 32 C442.4 32 468.8 32 496 32 C496 37.28 496 42.56 496 48 C506.56 48 517.12 48 528 48 C528 53.28 528 58.56 528 64 C533.28 64 538.56 64 544 64 C544 69.28 544 74.56 544 80 C549.28 80 554.56 80 560 80 C560 90.56 560 101.12 560 112 C565.28 112 570.56 112 576 112 C576 138.4 576 164.8 576 192 C570.72 192 565.44 192 560 192 C560 202.56 560 213.12 560 224 C554.72 224 549.44 224 544 224 C544 229.28 544 234.56 544 240 C538.72 240 533.44 240 528 240 C528 245.28 528 250.56 528 256 C517.44 256 506.88 256 496 256 C496 261.28 496 266.56 496 272 C490.72 272 485.44 272 480 272 C480 303.68 480 335.36 480 368 C485.28 368 490.56 368 496 368 C496 373.28 496 378.56 496 384 C501.28 384 506.56 384 512 384 C512 405.12 512 426.24 512 448 C506.72 448 501.44 448 496 448 C496 453.28 496 458.56 496 464 C490.72 464 485.44 464 480 464 C480 490.4 480 516.8 480 544 C485.28 544 490.56 544 496 544 C496 565.12 496 586.24 496 608 C490.72 608 485.44 608 480 608 C480 613.28 480 618.56 480 624 C474.72 624 469.44 624 464 624 C464 629.28 464 634.56 464 640 C442.88 640 421.76 640 400 640 C400 634.72 400 629.44 400 624 C394.72 624 389.44 624 384 624 C384 618.72 384 613.44 384 608 C378.72 608 373.44 608 368 608 C368 597.44 368 586.88 368 576 C362.72 576 357.44 576 352 576 C352 602.4 352 628.8 352 656 C346.72 656 341.44 656 336 656 C336 671.84 336 687.68 336 704 C330.72 704 325.44 704 320 704 C320 714.56 320 725.12 320 736 C314.72 736 309.44 736 304 736 C304 746.56 304 757.12 304 768 C298.72 768 293.44 768 288 768 C288 773.28 288 778.56 288 784 C282.72 784 277.44 784 272 784 C272 789.28 272 794.56 272 800 C266.72 800 261.44 800 256 800 C256 805.28 256 810.56 256 816 C245.44 816 234.88 816 224 816 C224 821.28 224 826.56 224 832 C218.72 832 213.44 832 208 832 C208 837.28 208 842.56 208 848 C197.44 848 186.88 848 176 848 C176 853.28 176 858.56 176 864 C160.16 864 144.32 864 128 864 C128 869.28 128 874.56 128 880 C80.48 880 32.96 880 -16 880 C-16 874.72 -16 869.44 -16 864 C-31.84 864 -47.68 864 -64 864 C-64 858.72 -64 853.44 -64 848 C-74.56 848 -85.12 848 -96 848 C-96 842.72 -96 837.44 -96 832 C-101.28 832 -106.56 832 -112 832 C-112 826.72 -112 821.44 -112 816 C-122.56 816 -133.12 816 -144 816 C-144 810.72 -144 805.44 -144 800 C-149.28 800 -154.56 800 -160 800 C-160 794.72 -160 789.44 -160 784 C-165.28 784 -170.56 784 -176 784 C-176 778.72 -176 773.44 -176 768 C-181.28 768 -186.56 768 -192 768 C-192 757.44 -192 746.88 -192 736 C-197.28 736 -202.56 736 -208 736 C-208 725.44 -208 714.88 -208 704 C-213.28 704 -218.56 704 -224 704 C-224 688.16 -224 672.32 -224 656 C-229.28 656 -234.56 656 -240 656 C-240 645.44 -240 634.88 -240 624 C-245.28 624 -250.56 624 -256 624 C-256 629.28 -256 634.56 -256 640 C-271.84 640 -287.68 640 -304 640 C-304 634.72 -304 629.44 -304 624 C-314.56 624 -325.12 624 -336 624 C-336 613.44 -336 602.88 -336 592 C-341.28 592 -346.56 592 -352 592 C-352 576.16 -352 560.32 -352 544 C-346.72 544 -341.44 544 -336 544 C-336 538.72 -336 533.44 -336 528 C-341.28 528 -346.56 528 -352 528 C-352 517.44 -352 506.88 -352 496 C-357.28 496 -362.56 496 -368 496 C-368 480.16 -368 464.32 -368 448 C-362.72 448 -357.44 448 -352 448 C-352 437.44 -352 426.88 -352 416 C-341.44 416 -330.88 416 -320 416 C-320 379.04 -320 342.08 -320 304 C-325.28 304 -330.56 304 -336 304 C-336 298.72 -336 293.44 -336 288 C-346.56 288 -357.12 288 -368 288 C-368 240.48 -368 192.96 -368 144 C-362.72 144 -357.44 144 -352 144 C-352 138.72 -352 133.44 -352 128 C-315.04 128 -278.08 128 -240 128 C-240 133.28 -240 138.56 -240 144 C-234.72 144 -229.44 144 -224 144 C-224 191.52 -224 239.04 -224 288 C-234.56 288 -245.12 288 -256 288 C-256 293.28 -256 298.56 -256 304 C-261.28 304 -266.56 304 -272 304 C-272 340.96 -272 377.92 -272 416 C-261.44 416 -250.88 416 -240 416 C-240 426.56 -240 437.12 -240 448 C-234.72 448 -229.44 448 -224 448 C-224 463.84 -224 479.68 -224 496 C-218.72 496 -213.44 496 -208 496 C-208 485.44 -208 474.88 -208 464 C-202.72 464 -197.44 464 -192 464 C-192 453.44 -192 442.88 -192 432 C-186.72 432 -181.44 432 -176 432 C-176 426.72 -176 421.44 -176 416 C-170.72 416 -165.44 416 -160 416 C-160 410.72 -160 405.44 -160 400 C-154.72 400 -149.44 400 -144 400 C-144 394.72 -144 389.44 -144 384 C-133.44 384 -122.88 384 -112 384 C-112 378.72 -112 373.44 -112 368 C-106.72 368 -101.44 368 -96 368 C-96 362.72 -96 357.44 -96 352 C-80.16 352 -64.32 352 -48 352 C-48 346.72 -48 341.44 -48 336 C-53.28 336 -58.56 336 -64 336 C-64 330.72 -64 325.44 -64 320 C-69.28 320 -74.56 320 -80 320 C-80 314.72 -80 309.44 -80 304 C-85.28 304 -90.56 304 -96 304 C-96 298.72 -96 293.44 -96 288 C-101.28 288 -106.56 288 -112 288 C-112 282.72 -112 277.44 -112 272 C-117.28 272 -122.56 272 -128 272 C-128 266.72 -128 261.44 -128 256 C-138.56 256 -149.12 256 -160 256 C-160 250.72 -160 245.44 -160 240 C-170.56 240 -181.12 240 -192 240 C-192 229.44 -192 218.88 -192 208 C-197.28 208 -202.56 208 -208 208 C-208 192.16 -208 176.32 -208 160 C-202.72 160 -197.44 160 -192 160 C-192 149.44 -192 138.88 -192 128 C-181.44 128 -170.88 128 -160 128 C-160 122.72 -160 117.44 -160 112 C-149.44 112 -138.88 112 -128 112 C-128 106.72 -128 101.44 -128 96 C-122.72 96 -117.44 96 -112 96 C-112 90.72 -112 85.44 -112 80 C-106.72 80 -101.44 80 -96 80 C-96 74.72 -96 69.44 -96 64 C-90.72 64 -85.44 64 -80 64 C-80 58.72 -80 53.44 -80 48 C-74.72 48 -69.44 48 -64 48 C-64 42.72 -64 37.44 -64 32 C-58.72 32 -53.44 32 -48 32 C-48 26.72 -48 21.44 -48 16 C-32.16 16 -16.32 16 0 16 C0 10.72 0 5.44 0 0 Z M-240 496 C-240 506.56 -240 517.12 -240 528 C-234.72 528 -229.44 528 -224 528 C-224 517.44 -224 506.88 -224 496 C-229.28 496 -234.56 496 -240 496 Z " fill="#D0CEBF" transform="translate(416,64)"/>
<path d="M0 0 C26.4 0 52.8 0 80 0 C80 5.28 80 10.56 80 16 C90.56 16 101.12 16 112 16 C112 21.28 112 26.56 112 32 C117.28 32 122.56 32 128 32 C128 37.28 128 42.56 128 48 C133.28 48 138.56 48 144 48 C144 58.56 144 69.12 144 80 C149.28 80 154.56 80 160 80 C160 106.4 160 132.8 160 160 C154.72 160 149.44 160 144 160 C144 170.56 144 181.12 144 192 C138.72 192 133.44 192 128 192 C128 197.28 128 202.56 128 208 C122.72 208 117.44 208 112 208 C112 213.28 112 218.56 112 224 C101.44 224 90.88 224 80 224 C80 229.28 80 234.56 80 240 C74.72 240 69.44 240 64 240 C64 271.68 64 303.36 64 336 C69.28 336 74.56 336 80 336 C80 341.28 80 346.56 80 352 C85.28 352 90.56 352 96 352 C96 373.12 96 394.24 96 416 C90.72 416 85.44 416 80 416 C80 421.28 80 426.56 80 432 C74.72 432 69.44 432 64 432 C64 458.4 64 484.8 64 512 C69.28 512 74.56 512 80 512 C80 533.12 80 554.24 80 576 C74.72 576 69.44 576 64 576 C64 581.28 64 586.56 64 592 C58.72 592 53.44 592 48 592 C48 597.28 48 602.56 48 608 C26.88 608 5.76 608 -16 608 C-16 602.72 -16 597.44 -16 592 C-21.28 592 -26.56 592 -32 592 C-32 586.72 -32 581.44 -32 576 C-37.28 576 -42.56 576 -48 576 C-48 565.44 -48 554.88 -48 544 C-53.28 544 -58.56 544 -64 544 C-64 570.4 -64 596.8 -64 624 C-69.28 624 -74.56 624 -80 624 C-80 639.84 -80 655.68 -80 672 C-85.28 672 -90.56 672 -96 672 C-96 682.56 -96 693.12 -96 704 C-101.28 704 -106.56 704 -112 704 C-112 714.56 -112 725.12 -112 736 C-117.28 736 -122.56 736 -128 736 C-128 741.28 -128 746.56 -128 752 C-133.28 752 -138.56 752 -144 752 C-144 757.28 -144 762.56 -144 768 C-149.28 768 -154.56 768 -160 768 C-160 773.28 -160 778.56 -160 784 C-170.56 784 -181.12 784 -192 784 C-192 789.28 -192 794.56 -192 800 C-197.28 800 -202.56 800 -208 800 C-208 805.28 -208 810.56 -208 816 C-218.56 816 -229.12 816 -240 816 C-240 821.28 -240 826.56 -240 832 C-255.84 832 -271.68 832 -288 832 C-288 837.28 -288 842.56 -288 848 C-335.52 848 -383.04 848 -432 848 C-432 842.72 -432 837.44 -432 832 C-447.84 832 -463.68 832 -480 832 C-480 826.72 -480 821.44 -480 816 C-490.56 816 -501.12 816 -512 816 C-512 810.72 -512 805.44 -512 800 C-517.28 800 -522.56 800 -528 800 C-528 794.72 -528 789.44 -528 784 C-538.56 784 -549.12 784 -560 784 C-560 778.72 -560 773.44 -560 768 C-565.28 768 -570.56 768 -576 768 C-576 762.72 -576 757.44 -576 752 C-565.44 752 -554.88 752 -544 752 C-544 746.72 -544 741.44 -544 736 C-522.88 736 -501.76 736 -480 736 C-480 730.72 -480 725.44 -480 720 C-485.28 720 -490.56 720 -496 720 C-496 714.72 -496 709.44 -496 704 C-501.28 704 -506.56 704 -512 704 C-512 698.72 -512 693.44 -512 688 C-517.28 688 -522.56 688 -528 688 C-528 682.72 -528 677.44 -528 672 C-522.72 672 -517.44 672 -512 672 C-512 666.72 -512 661.44 -512 656 C-506.72 656 -501.44 656 -496 656 C-496 650.72 -496 645.44 -496 640 C-485.44 640 -474.88 640 -464 640 C-464 645.28 -464 650.56 -464 656 C-458.72 656 -453.44 656 -448 656 C-448 661.28 -448 666.56 -448 672 C-442.72 672 -437.44 672 -432 672 C-432 677.28 -432 682.56 -432 688 C-426.72 688 -421.44 688 -416 688 C-416 693.28 -416 698.56 -416 704 C-421.28 704 -426.56 704 -432 704 C-432 709.28 -432 714.56 -432 720 C-400.32 720 -368.64 720 -336 720 C-336 630.24 -336 540.48 -336 448 C-330.72 448 -325.44 448 -320 448 C-320 537.76 -320 627.52 -320 720 C-314.72 720 -309.44 720 -304 720 C-304 714.72 -304 709.44 -304 704 C-288.16 704 -272.32 704 -256 704 C-256 698.72 -256 693.44 -256 688 C-245.44 688 -234.88 688 -224 688 C-224 682.72 -224 677.44 -224 672 C-208.16 672 -192.32 672 -176 672 C-176 666.72 -176 661.44 -176 656 C-170.72 656 -165.44 656 -160 656 C-160 650.72 -160 645.44 -160 640 C-154.72 640 -149.44 640 -144 640 C-144 624.16 -144 608.32 -144 592 C-138.72 592 -133.44 592 -128 592 C-128 576.16 -128 560.32 -128 544 C-122.72 544 -117.44 544 -112 544 C-112 507.04 -112 470.08 -112 432 C-117.28 432 -122.56 432 -128 432 C-128 421.44 -128 410.88 -128 400 C-133.28 400 -138.56 400 -144 400 C-144 394.72 -144 389.44 -144 384 C-128.16 384 -112.32 384 -96 384 C-96 389.28 -96 394.56 -96 400 C-85.44 400 -74.88 400 -64 400 C-64 410.56 -64 421.12 -64 432 C-58.72 432 -53.44 432 -48 432 C-48 447.84 -48 463.68 -48 480 C-42.72 480 -37.44 480 -32 480 C-32 485.28 -32 490.56 -32 496 C-26.72 496 -21.44 496 -16 496 C-16 490.72 -16 485.44 -16 480 C-10.72 480 -5.44 480 0 480 C0 464.16 0 448.32 0 432 C-5.28 432 -10.56 432 -16 432 C-16 426.72 -16 421.44 -16 416 C-21.28 416 -26.56 416 -32 416 C-32 394.88 -32 373.76 -32 352 C-26.72 352 -21.44 352 -16 352 C-16 346.72 -16 341.44 -16 336 C-10.72 336 -5.44 336 0 336 C0 299.04 0 262.08 0 224 C-10.56 224 -21.12 224 -32 224 C-32 218.72 -32 213.44 -32 208 C-37.28 208 -42.56 208 -48 208 C-48 202.72 -48 197.44 -48 192 C-53.28 192 -58.56 192 -64 192 C-64 181.44 -64 170.88 -64 160 C-69.28 160 -74.56 160 -80 160 C-80 133.6 -80 107.2 -80 80 C-74.72 80 -69.44 80 -64 80 C-64 69.44 -64 58.88 -64 48 C-58.72 48 -53.44 48 -48 48 C-48 42.72 -48 37.44 -48 32 C-42.72 32 -37.44 32 -32 32 C-32 26.72 -32 21.44 -32 16 C-21.44 16 -10.88 16 0 16 C0 10.72 0 5.44 0 0 Z " fill="#D0CEBF" transform="translate(832,96)"/>
<path d="M0 0 C36.96 0 73.92 0 112 0 C112 5.28 112 10.56 112 16 C127.84 16 143.68 16 160 16 C160 21.28 160 26.56 160 32 C165.28 32 170.56 32 176 32 C176 37.28 176 42.56 176 48 C181.28 48 186.56 48 192 48 C192 53.28 192 58.56 192 64 C197.28 64 202.56 64 208 64 C208 69.28 208 74.56 208 80 C213.28 80 218.56 80 224 80 C224 85.28 224 90.56 224 96 C229.28 96 234.56 96 240 96 C240 101.28 240 106.56 240 112 C250.56 112 261.12 112 272 112 C272 117.28 272 122.56 272 128 C282.56 128 293.12 128 304 128 C304 138.56 304 149.12 304 160 C309.28 160 314.56 160 320 160 C320 175.84 320 191.68 320 208 C314.72 208 309.44 208 304 208 C304 218.56 304 229.12 304 240 C293.44 240 282.88 240 272 240 C272 245.28 272 250.56 272 256 C261.44 256 250.88 256 240 256 C240 261.28 240 266.56 240 272 C234.72 272 229.44 272 224 272 C224 277.28 224 282.56 224 288 C218.72 288 213.44 288 208 288 C208 293.28 208 298.56 208 304 C202.72 304 197.44 304 192 304 C192 309.28 192 314.56 192 320 C186.72 320 181.44 320 176 320 C176 325.28 176 330.56 176 336 C170.72 336 165.44 336 160 336 C160 341.28 160 346.56 160 352 C144.16 352 128.32 352 112 352 C112 357.28 112 362.56 112 368 C96.16 368 80.32 368 64 368 C64 378.56 64 389.12 64 400 C58.72 400 53.44 400 48 400 C48 389.44 48 378.88 48 368 C32.16 368 16.32 368 0 368 C0 362.72 0 357.44 0 352 C-15.84 352 -31.68 352 -48 352 C-48 346.72 -48 341.44 -48 336 C-53.28 336 -58.56 336 -64 336 C-64 330.72 -64 325.44 -64 320 C-69.28 320 -74.56 320 -80 320 C-80 314.72 -80 309.44 -80 304 C-85.28 304 -90.56 304 -96 304 C-96 298.72 -96 293.44 -96 288 C-101.28 288 -106.56 288 -112 288 C-112 282.72 -112 277.44 -112 272 C-117.28 272 -122.56 272 -128 272 C-128 266.72 -128 261.44 -128 256 C-138.56 256 -149.12 256 -160 256 C-160 250.72 -160 245.44 -160 240 C-170.56 240 -181.12 240 -192 240 C-192 229.44 -192 218.88 -192 208 C-197.28 208 -202.56 208 -208 208 C-208 192.16 -208 176.32 -208 160 C-202.72 160 -197.44 160 -192 160 C-192 149.44 -192 138.88 -192 128 C-181.44 128 -170.88 128 -160 128 C-160 122.72 -160 117.44 -160 112 C-149.44 112 -138.88 112 -128 112 C-128 106.72 -128 101.44 -128 96 C-122.72 96 -117.44 96 -112 96 C-112 90.72 -112 85.44 -112 80 C-106.72 80 -101.44 80 -96 80 C-96 74.72 -96 69.44 -96 64 C-90.72 64 -85.44 64 -80 64 C-80 58.72 -80 53.44 -80 48 C-74.72 48 -69.44 48 -64 48 C-64 42.72 -64 37.44 -64 32 C-58.72 32 -53.44 32 -48 32 C-48 26.72 -48 21.44 -48 16 C-32.16 16 -16.32 16 0 16 C0 10.72 0 5.44 0 0 Z " fill="#D0CEBF" transform="translate(416,64)"/>
<path d="M0 0 C31.68 0 63.36 0 96 0 C96 5.28 96 10.56 96 16 C101.28 16 106.56 16 112 16 C112 21.28 112 26.56 112 32 C122.56 32 133.12 32 144 32 C144 37.28 144 42.56 144 48 C149.28 48 154.56 48 160 48 C160 58.56 160 69.12 160 80 C165.28 80 170.56 80 176 80 C176 90.56 176 101.12 176 112 C181.28 112 186.56 112 192 112 C192 148.96 192 185.92 192 224 C186.72 224 181.44 224 176 224 C176 239.84 176 255.68 176 272 C170.72 272 165.44 272 160 272 C160 287.84 160 303.68 160 320 C154.72 320 149.44 320 144 320 C144 325.28 144 330.56 144 336 C138.72 336 133.44 336 128 336 C128 341.28 128 346.56 128 352 C112.16 352 96.32 352 80 352 C80 357.28 80 362.56 80 368 C69.44 368 58.88 368 48 368 C48 373.28 48 378.56 48 384 C32.16 384 16.32 384 0 384 C0 389.28 0 394.56 0 400 C-5.28 400 -10.56 400 -16 400 C-16 310.24 -16 220.48 -16 128 C-21.28 128 -26.56 128 -32 128 C-32 101.6 -32 75.2 -32 48 C-37.28 48 -42.56 48 -48 48 C-48 37.44 -48 26.88 -48 16 C-32.16 16 -16.32 16 0 16 C0 10.72 0 5.44 0 0 Z " fill="#E4E6DA" transform="translate(528,416)"/>
<path d="M0 0 C26.4 0 52.8 0 80 0 C80 5.28 80 10.56 80 16 C90.56 16 101.12 16 112 16 C112 21.28 112 26.56 112 32 C117.28 32 122.56 32 128 32 C128 37.28 128 42.56 128 48 C133.28 48 138.56 48 144 48 C144 58.56 144 69.12 144 80 C149.28 80 154.56 80 160 80 C160 106.4 160 132.8 160 160 C154.72 160 149.44 160 144 160 C144 170.56 144 181.12 144 192 C138.72 192 133.44 192 128 192 C128 197.28 128 202.56 128 208 C122.72 208 117.44 208 112 208 C112 213.28 112 218.56 112 224 C101.44 224 90.88 224 80 224 C80 229.28 80 234.56 80 240 C74.72 240 69.44 240 64 240 C64 271.68 64 303.36 64 336 C53.44 336 42.88 336 32 336 C32 341.28 32 346.56 32 352 C26.72 352 21.44 352 16 352 C16 346.72 16 341.44 16 336 C10.72 336 5.44 336 0 336 C0 299.04 0 262.08 0 224 C-10.56 224 -21.12 224 -32 224 C-32 218.72 -32 213.44 -32 208 C-37.28 208 -42.56 208 -48 208 C-48 202.72 -48 197.44 -48 192 C-53.28 192 -58.56 192 -64 192 C-64 181.44 -64 170.88 -64 160 C-69.28 160 -74.56 160 -80 160 C-80 133.6 -80 107.2 -80 80 C-74.72 80 -69.44 80 -64 80 C-64 69.44 -64 58.88 -64 48 C-58.72 48 -53.44 48 -48 48 C-48 42.72 -48 37.44 -48 32 C-42.72 32 -37.44 32 -32 32 C-32 26.72 -32 21.44 -32 16 C-21.44 16 -10.88 16 0 16 C0 10.72 0 5.44 0 0 Z " fill="#172634" transform="translate(832,96)"/>
<path d="M0 0 C36.96 0 73.92 0 112 0 C112 5.28 112 10.56 112 16 C117.28 16 122.56 16 128 16 C128 63.52 128 111.04 128 160 C117.44 160 106.88 160 96 160 C96 165.28 96 170.56 96 176 C90.72 176 85.44 176 80 176 C80 212.96 80 249.92 80 288 C90.56 288 101.12 288 112 288 C112 298.56 112 309.12 112 320 C117.28 320 122.56 320 128 320 C128 335.84 128 351.68 128 368 C122.72 368 117.44 368 112 368 C112 378.56 112 389.12 112 400 C101.44 400 90.88 400 80 400 C80 405.28 80 410.56 80 416 C74.72 416 69.44 416 64 416 C64 431.84 64 447.68 64 464 C69.28 464 74.56 464 80 464 C80 474.56 80 485.12 80 496 C85.28 496 90.56 496 96 496 C96 501.28 96 506.56 96 512 C80.16 512 64.32 512 48 512 C48 506.72 48 501.44 48 496 C37.44 496 26.88 496 16 496 C16 485.44 16 474.88 16 464 C10.72 464 5.44 464 0 464 C0 448.16 0 432.32 0 416 C5.28 416 10.56 416 16 416 C16 410.72 16 405.44 16 400 C10.72 400 5.44 400 0 400 C0 389.44 0 378.88 0 368 C-5.28 368 -10.56 368 -16 368 C-16 352.16 -16 336.32 -16 320 C-10.72 320 -5.44 320 0 320 C0 309.44 0 298.88 0 288 C10.56 288 21.12 288 32 288 C32 251.04 32 214.08 32 176 C26.72 176 21.44 176 16 176 C16 170.72 16 165.44 16 160 C5.44 160 -5.12 160 -16 160 C-16 112.48 -16 64.96 -16 16 C-10.72 16 -5.44 16 0 16 C0 10.72 0 5.44 0 0 Z " fill="#AAA194" transform="translate(64,192)"/>
<path d="M0 0 C5.28 0 10.56 0 16 0 C16 10.56 16 21.12 16 32 C42.4 32 68.8 32 96 32 C96 37.28 96 42.56 96 48 C101.28 48 106.56 48 112 48 C112 53.28 112 58.56 112 64 C117.28 64 122.56 64 128 64 C128 90.4 128 116.8 128 144 C122.72 144 117.44 144 112 144 C112 149.28 112 154.56 112 160 C106.72 160 101.44 160 96 160 C96 165.28 96 170.56 96 176 C69.6 176 43.2 176 16 176 C16 186.56 16 197.12 16 208 C10.72 208 5.44 208 0 208 C0 197.44 0 186.88 0 176 C-36.96 176 -73.92 176 -112 176 C-112 170.72 -112 165.44 -112 160 C-117.28 160 -122.56 160 -128 160 C-128 154.72 -128 149.44 -128 144 C-133.28 144 -138.56 144 -144 144 C-144 117.6 -144 91.2 -144 64 C-138.72 64 -133.44 64 -128 64 C-128 58.72 -128 53.44 -128 48 C-122.72 48 -117.44 48 -112 48 C-112 42.72 -112 37.44 -112 32 C-75.04 32 -38.08 32 0 32 C0 21.44 0 10.88 0 0 Z " fill="#122435" transform="translate(480,144)"/>
<path d="M0 0 C10.56 0 21.12 0 32 0 C32 5.28 32 10.56 32 16 C37.28 16 42.56 16 48 16 C48 21.28 48 26.56 48 32 C53.28 32 58.56 32 64 32 C64 37.28 64 42.56 64 48 C69.28 48 74.56 48 80 48 C80 53.28 80 58.56 80 64 C74.72 64 69.44 64 64 64 C64 69.28 64 74.56 64 80 C95.68 80 127.36 80 160 80 C160 106.4 160 132.8 160 160 C154.72 160 149.44 160 144 160 C144 170.56 144 181.12 144 192 C165.12 192 186.24 192 208 192 C208 197.28 208 202.56 208 208 C160.48 208 112.96 208 64 208 C64 202.72 64 197.44 64 192 C48.16 192 32.32 192 16 192 C16 186.72 16 181.44 16 176 C5.44 176 -5.12 176 -16 176 C-16 170.72 -16 165.44 -16 160 C-21.28 160 -26.56 160 -32 160 C-32 154.72 -32 149.44 -32 144 C-42.56 144 -53.12 144 -64 144 C-64 138.72 -64 133.44 -64 128 C-69.28 128 -74.56 128 -80 128 C-80 122.72 -80 117.44 -80 112 C-69.44 112 -58.88 112 -48 112 C-48 106.72 -48 101.44 -48 96 C-26.88 96 -5.76 96 16 96 C16 90.72 16 85.44 16 80 C10.72 80 5.44 80 0 80 C0 74.72 0 69.44 0 64 C-5.28 64 -10.56 64 -16 64 C-16 58.72 -16 53.44 -16 48 C-21.28 48 -26.56 48 -32 48 C-32 42.72 -32 37.44 -32 32 C-26.72 32 -21.44 32 -16 32 C-16 26.72 -16 21.44 -16 16 C-10.72 16 -5.44 16 0 16 C0 10.72 0 5.44 0 0 Z " fill="#AAA194" transform="translate(336,736)"/>
<path d="M0 0 C10.56 0 21.12 0 32 0 C32 5.28 32 10.56 32 16 C37.28 16 42.56 16 48 16 C48 10.72 48 5.44 48 0 C63.84 0 79.68 0 96 0 C96 5.28 96 10.56 96 16 C101.28 16 106.56 16 112 16 C112 37.12 112 58.24 112 80 C106.72 80 101.44 80 96 80 C96 85.28 96 90.56 96 96 C90.72 96 85.44 96 80 96 C80 122.4 80 148.8 80 176 C85.28 176 90.56 176 96 176 C96 197.12 96 218.24 96 240 C90.72 240 85.44 240 80 240 C80 245.28 80 250.56 80 256 C74.72 256 69.44 256 64 256 C64 261.28 64 266.56 64 272 C42.88 272 21.76 272 0 272 C0 266.72 0 261.44 0 256 C-5.28 256 -10.56 256 -16 256 C-16 250.72 -16 245.44 -16 240 C-21.28 240 -26.56 240 -32 240 C-32 229.44 -32 218.88 -32 208 C-37.28 208 -42.56 208 -48 208 C-48 234.4 -48 260.8 -48 288 C-53.28 288 -58.56 288 -64 288 C-64 251.04 -64 214.08 -64 176 C-58.72 176 -53.44 176 -48 176 C-48 181.28 -48 186.56 -48 192 C-42.72 192 -37.44 192 -32 192 C-32 186.72 -32 181.44 -32 176 C-26.72 176 -21.44 176 -16 176 C-16 191.84 -16 207.68 -16 224 C-0.16 224 15.68 224 32 224 C32 218.72 32 213.44 32 208 C37.28 208 42.56 208 48 208 C48 197.44 48 186.88 48 176 C53.28 176 58.56 176 64 176 C64 170.72 64 165.44 64 160 C42.88 160 21.76 160 0 160 C0 154.72 0 149.44 0 144 C5.28 144 10.56 144 16 144 C16 128.16 16 112.32 16 96 C10.72 96 5.44 96 0 96 C0 90.72 0 85.44 0 80 C-5.28 80 -10.56 80 -16 80 C-16 58.88 -16 37.76 -16 16 C-10.72 16 -5.44 16 0 16 C0 10.72 0 5.44 0 0 Z " fill="#52585D" transform="translate(816,432)"/>
<path d="M0 0 C31.68 0 63.36 0 96 0 C96 5.28 96 10.56 96 16 C111.84 16 127.68 16 144 16 C144 26.56 144 37.12 144 48 C149.28 48 154.56 48 160 48 C160 63.84 160 79.68 160 96 C149.44 96 138.88 96 128 96 C128 101.28 128 106.56 128 112 C117.44 112 106.88 112 96 112 C96 117.28 96 122.56 96 128 C90.72 128 85.44 128 80 128 C80 122.72 80 117.44 80 112 C74.72 112 69.44 112 64 112 C64 106.72 64 101.44 64 96 C53.44 96 42.88 96 32 96 C32 101.28 32 106.56 32 112 C26.72 112 21.44 112 16 112 C16 117.28 16 122.56 16 128 C10.72 128 5.44 128 0 128 C0 133.28 0 138.56 0 144 C-31.68 144 -63.36 144 -96 144 C-96 122.88 -96 101.76 -96 80 C-90.72 80 -85.44 80 -80 80 C-80 74.72 -80 69.44 -80 64 C-74.72 64 -69.44 64 -64 64 C-64 58.72 -64 53.44 -64 48 C-58.72 48 -53.44 48 -48 48 C-48 42.72 -48 37.44 -48 32 C-37.44 32 -26.88 32 -16 32 C-16 26.72 -16 21.44 -16 16 C-10.72 16 -5.44 16 0 16 C0 10.72 0 5.44 0 0 Z " fill="#E4E6DA" transform="translate(320,416)"/>
<path d="M0 0 C36.96 0 73.92 0 112 0 C112 5.28 112 10.56 112 16 C117.28 16 122.56 16 128 16 C128 63.52 128 111.04 128 160 C80.48 160 32.96 160 -16 160 C-16 112.48 -16 64.96 -16 16 C-10.72 16 -5.44 16 0 16 C0 10.72 0 5.44 0 0 Z " fill="#E4E6DA" transform="translate(64,192)"/>
<path d="M0 0 C5.28 0 10.56 0 16 0 C16 10.56 16 21.12 16 32 C10.72 32 5.44 32 0 32 C0 53.12 0 74.24 0 96 C15.84 96 31.68 96 48 96 C48 106.56 48 117.12 48 128 C53.28 128 58.56 128 64 128 C64 133.28 64 138.56 64 144 C69.28 144 74.56 144 80 144 C80 149.28 80 154.56 80 160 C116.96 160 153.92 160 192 160 C192 170.56 192 181.12 192 192 C160.32 192 128.64 192 96 192 C96 197.28 96 202.56 96 208 C74.88 208 53.76 208 32 208 C32 202.72 32 197.44 32 192 C26.72 192 21.44 192 16 192 C16 186.72 16 181.44 16 176 C10.72 176 5.44 176 0 176 C0 170.72 0 165.44 0 160 C-10.56 160 -21.12 160 -32 160 C-32 154.72 -32 149.44 -32 144 C-42.56 144 -53.12 144 -64 144 C-64 133.44 -64 122.88 -64 112 C-69.28 112 -74.56 112 -80 112 C-80 96.16 -80 80.32 -80 64 C-74.72 64 -69.44 64 -64 64 C-64 53.44 -64 42.88 -64 32 C-53.44 32 -42.88 32 -32 32 C-32 26.72 -32 21.44 -32 16 C-21.44 16 -10.88 16 0 16 C0 10.72 0 5.44 0 0 Z " fill="#D0CEBF" transform="translate(288,160)"/>
<path d="M0 0 C26.4 0 52.8 0 80 0 C80 5.28 80 10.56 80 16 C85.28 16 90.56 16 96 16 C96 31.84 96 47.68 96 64 C101.28 64 106.56 64 112 64 C112 74.56 112 85.12 112 96 C75.04 96 38.08 96 0 96 C0 101.28 0 106.56 0 112 C-5.28 112 -10.56 112 -16 112 C-16 117.28 -16 122.56 -16 128 C-21.28 128 -26.56 128 -32 128 C-32 143.84 -32 159.68 -32 176 C-47.84 176 -63.68 176 -80 176 C-80 154.88 -80 133.76 -80 112 C-74.72 112 -69.44 112 -64 112 C-64 96.16 -64 80.32 -64 64 C-58.72 64 -53.44 64 -48 64 C-48 58.72 -48 53.44 -48 48 C-42.72 48 -37.44 48 -32 48 C-32 42.72 -32 37.44 -32 32 C-26.72 32 -21.44 32 -16 32 C-16 26.72 -16 21.44 -16 16 C-10.72 16 -5.44 16 0 16 C0 10.72 0 5.44 0 0 Z " fill="#FFFFFF" transform="translate(368,80)"/>
<path d="M0 0 C36.96 0 73.92 0 112 0 C112 5.28 112 10.56 112 16 C117.28 16 122.56 16 128 16 C128 42.4 128 68.8 128 96 C122.72 96 117.44 96 112 96 C112 101.28 112 106.56 112 112 C106.72 112 101.44 112 96 112 C96 117.28 96 122.56 96 128 C69.6 128 43.2 128 16 128 C16 122.72 16 117.44 16 112 C10.72 112 5.44 112 0 112 C0 106.72 0 101.44 0 96 C-5.28 96 -10.56 96 -16 96 C-16 69.6 -16 43.2 -16 16 C-10.72 16 -5.44 16 0 16 C0 10.72 0 5.44 0 0 Z " fill="#373737" transform="translate(816,160)"/>
<path d="M0 0 C15.84 0 31.68 0 48 0 C48 5.28 48 10.56 48 16 C58.56 16 69.12 16 80 16 C80 26.56 80 37.12 80 48 C85.28 48 90.56 48 96 48 C96 63.84 96 79.68 96 96 C101.28 96 106.56 96 112 96 C112 101.28 112 106.56 112 112 C138.4 112 164.8 112 192 112 C192 117.28 192 122.56 192 128 C186.72 128 181.44 128 176 128 C176 138.56 176 149.12 176 160 C170.72 160 165.44 160 160 160 C160 165.28 160 170.56 160 176 C144.16 176 128.32 176 112 176 C112 160.16 112 144.32 112 128 C106.72 128 101.44 128 96 128 C96 133.28 96 138.56 96 144 C90.72 144 85.44 144 80 144 C80 138.72 80 133.44 80 128 C69.44 128 58.88 128 48 128 C48 112.16 48 96.32 48 80 C42.72 80 37.44 80 32 80 C32 69.44 32 58.88 32 48 C26.72 48 21.44 48 16 48 C16 37.44 16 26.88 16 16 C10.72 16 5.44 16 0 16 C0 10.72 0 5.44 0 0 Z " fill="#D0CEBF" transform="translate(688,480)"/>
<path d="M0 0 C36.96 0 73.92 0 112 0 C112 5.28 112 10.56 112 16 C127.84 16 143.68 16 160 16 C160 21.28 160 26.56 160 32 C165.28 32 170.56 32 176 32 C176 47.84 176 63.68 176 80 C170.72 80 165.44 80 160 80 C160 85.28 160 90.56 160 96 C144.16 96 128.32 96 112 96 C112 101.28 112 106.56 112 112 C101.44 112 90.88 112 80 112 C80 101.44 80 90.88 80 80 C69.44 80 58.88 80 48 80 C48 64.16 48 48.32 48 32 C42.72 32 37.44 32 32 32 C32 26.72 32 21.44 32 16 C21.44 16 10.88 16 0 16 C0 10.72 0 5.44 0 0 Z " fill="#FFFFFF" transform="translate(416,64)"/>
<path d="M0 0 C10.56 0 21.12 0 32 0 C32 5.28 32 10.56 32 16 C37.28 16 42.56 16 48 16 C48 10.72 48 5.44 48 0 C63.84 0 79.68 0 96 0 C96 5.28 96 10.56 96 16 C101.28 16 106.56 16 112 16 C112 37.12 112 58.24 112 80 C106.72 80 101.44 80 96 80 C96 85.28 96 90.56 96 96 C80.16 96 64.32 96 48 96 C48 90.72 48 85.44 48 80 C42.72 80 37.44 80 32 80 C32 85.28 32 90.56 32 96 C21.44 96 10.88 96 0 96 C0 90.72 0 85.44 0 80 C-5.28 80 -10.56 80 -16 80 C-16 58.88 -16 37.76 -16 16 C-10.72 16 -5.44 16 0 16 C0 10.72 0 5.44 0 0 Z " fill="#AAA194" transform="translate(816,432)"/>
<path d="M0 0 C5.28 0 10.56 0 16 0 C16 5.28 16 10.56 16 16 C26.56 16 37.12 16 48 16 C48 21.28 48 26.56 48 32 C58.56 32 69.12 32 80 32 C80 42.56 80 53.12 80 64 C85.28 64 90.56 64 96 64 C96 79.84 96 95.68 96 112 C90.72 112 85.44 112 80 112 C80 122.56 80 133.12 80 144 C69.44 144 58.88 144 48 144 C48 149.28 48 154.56 48 160 C37.44 160 26.88 160 16 160 C16 165.28 16 170.56 16 176 C10.72 176 5.44 176 0 176 C0 165.44 0 154.88 0 144 C5.28 144 10.56 144 16 144 C16 107.04 16 70.08 16 32 C10.72 32 5.44 32 0 32 C0 21.44 0 10.88 0 0 Z " fill="#D0CEBF" transform="translate(640,160)"/>
<path d="M0 0 C5.28 0 10.56 0 16 0 C16 10.56 16 21.12 16 32 C10.72 32 5.44 32 0 32 C0 68.96 0 105.92 0 144 C5.28 144 10.56 144 16 144 C16 154.56 16 165.12 16 176 C10.72 176 5.44 176 0 176 C0 170.72 0 165.44 0 160 C-10.56 160 -21.12 160 -32 160 C-32 154.72 -32 149.44 -32 144 C-42.56 144 -53.12 144 -64 144 C-64 133.44 -64 122.88 -64 112 C-69.28 112 -74.56 112 -80 112 C-80 96.16 -80 80.32 -80 64 C-74.72 64 -69.44 64 -64 64 C-64 53.44 -64 42.88 -64 32 C-53.44 32 -42.88 32 -32 32 C-32 26.72 -32 21.44 -32 16 C-21.44 16 -10.88 16 0 16 C0 10.72 0 5.44 0 0 Z " fill="#D7D6C8" transform="translate(288,160)"/>
<path d="M0 0 C31.68 0 63.36 0 96 0 C96 15.84 96 31.68 96 48 C90.72 48 85.44 48 80 48 C80 53.28 80 58.56 80 64 C101.12 64 122.24 64 144 64 C144 69.28 144 74.56 144 80 C128.16 80 112.32 80 96 80 C96 90.56 96 101.12 96 112 C90.72 112 85.44 112 80 112 C80 101.44 80 90.88 80 80 C64.16 80 48.32 80 32 80 C32 74.72 32 69.44 32 64 C16.16 64 0.32 64 -16 64 C-16 58.72 -16 53.44 -16 48 C-21.28 48 -26.56 48 -32 48 C-32 42.72 -32 37.44 -32 32 C-37.28 32 -42.56 32 -48 32 C-48 26.72 -48 21.44 -48 16 C-32.16 16 -16.32 16 0 16 C0 10.72 0 5.44 0 0 Z " fill="#AAA194" transform="translate(384,352)"/>
<path d="M0 0 C26.4 0 52.8 0 80 0 C80 5.28 80 10.56 80 16 C90.56 16 101.12 16 112 16 C112 26.56 112 37.12 112 48 C101.44 48 90.88 48 80 48 C80 42.72 80 37.44 80 32 C53.6 32 27.2 32 0 32 C0 37.28 0 42.56 0 48 C-10.56 48 -21.12 48 -32 48 C-32 58.56 -32 69.12 -32 80 C-37.28 80 -42.56 80 -48 80 C-48 106.4 -48 132.8 -48 160 C-58.56 160 -69.12 160 -80 160 C-80 133.6 -80 107.2 -80 80 C-74.72 80 -69.44 80 -64 80 C-64 69.44 -64 58.88 -64 48 C-58.72 48 -53.44 48 -48 48 C-48 42.72 -48 37.44 -48 32 C-42.72 32 -37.44 32 -32 32 C-32 26.72 -32 21.44 -32 16 C-21.44 16 -10.88 16 0 16 C0 10.72 0 5.44 0 0 Z " fill="#3D3D3D" transform="translate(832,96)"/>
<path d="M0 0 C5.28 0 10.56 0 16 0 C16 5.28 16 10.56 16 16 C21.28 16 26.56 16 32 16 C32 21.28 32 26.56 32 32 C37.28 32 42.56 32 48 32 C48 47.84 48 63.68 48 80 C53.28 80 58.56 80 64 80 C64 95.84 64 111.68 64 128 C58.72 128 53.44 128 48 128 C48 133.28 48 138.56 48 144 C42.72 144 37.44 144 32 144 C32 149.28 32 154.56 32 160 C26.72 160 21.44 160 16 160 C16 138.88 16 117.76 16 96 C10.72 96 5.44 96 0 96 C0 90.72 0 85.44 0 80 C-5.28 80 -10.56 80 -16 80 C-16 74.72 -16 69.44 -16 64 C-31.84 64 -47.68 64 -64 64 C-64 58.72 -64 53.44 -64 48 C-48.16 48 -32.32 48 -16 48 C-16 42.72 -16 37.44 -16 32 C-10.72 32 -5.44 32 0 32 C0 21.44 0 10.88 0 0 Z " fill="#E4E6DA" transform="translate(592,112)"/>
<path d="M0 0 C36.96 0 73.92 0 112 0 C112 5.28 112 10.56 112 16 C106.72 16 101.44 16 96 16 C96 52.96 96 89.92 96 128 C90.72 128 85.44 128 80 128 C80 91.04 80 54.08 80 16 C74.72 16 69.44 16 64 16 C64 52.96 64 89.92 64 128 C58.72 128 53.44 128 48 128 C48 91.04 48 54.08 48 16 C42.72 16 37.44 16 32 16 C32 52.96 32 89.92 32 128 C26.72 128 21.44 128 16 128 C16 91.04 16 54.08 16 16 C10.72 16 5.44 16 0 16 C0 10.72 0 5.44 0 0 Z " fill="#122435" transform="translate(64,192)"/>
<path d="M0 0 C26.4 0 52.8 0 80 0 C80 5.28 80 10.56 80 16 C74.72 16 69.44 16 64 16 C64 52.96 64 89.92 64 128 C48.16 128 32.32 128 16 128 C16 91.04 16 54.08 16 16 C10.72 16 5.44 16 0 16 C0 10.72 0 5.44 0 0 Z " fill="#122435" transform="translate(80,352)"/>
<path d="M0 0 C10.56 0 21.12 0 32 0 C32 5.28 32 10.56 32 16 C37.28 16 42.56 16 48 16 C48 21.28 48 26.56 48 32 C53.28 32 58.56 32 64 32 C64 37.28 64 42.56 64 48 C58.72 48 53.44 48 48 48 C48 53.28 48 58.56 48 64 C42.72 64 37.44 64 32 64 C32 69.28 32 74.56 32 80 C26.72 80 21.44 80 16 80 C16 85.28 16 90.56 16 96 C5.44 96 -5.12 96 -16 96 C-16 90.72 -16 85.44 -16 80 C-21.28 80 -26.56 80 -32 80 C-32 74.72 -32 69.44 -32 64 C-37.28 64 -42.56 64 -48 64 C-48 58.72 -48 53.44 -48 48 C-42.72 48 -37.44 48 -32 48 C-32 42.72 -32 37.44 -32 32 C-26.72 32 -21.44 32 -16 32 C-16 26.72 -16 21.44 -16 16 C-10.72 16 -5.44 16 0 16 C0 10.72 0 5.44 0 0 Z " fill="#FFB894" transform="translate(352,512)"/>
<path d="M0 0 C15.84 0 31.68 0 48 0 C48 5.28 48 10.56 48 16 C53.28 16 58.56 16 64 16 C64 21.28 64 26.56 64 32 C58.72 32 53.44 32 48 32 C48 37.28 48 42.56 48 48 C42.72 48 37.44 48 32 48 C32 53.28 32 58.56 32 64 C26.72 64 21.44 64 16 64 C16 69.28 16 74.56 16 80 C5.44 80 -5.12 80 -16 80 C-16 85.28 -16 90.56 -16 96 C-21.28 96 -26.56 96 -32 96 C-32 80.16 -32 64.32 -32 48 C-37.28 48 -42.56 48 -48 48 C-48 37.44 -48 26.88 -48 16 C-32.16 16 -16.32 16 0 16 C0 10.72 0 5.44 0 0 Z " fill="#FFFFFF" transform="translate(528,416)"/>
<path d="M0 0 C15.84 0 31.68 0 48 0 C48 10.56 48 21.12 48 32 C42.72 32 37.44 32 32 32 C32 37.28 32 42.56 32 48 C26.72 48 21.44 48 16 48 C16 53.28 16 58.56 16 64 C-10.4 64 -36.8 64 -64 64 C-64 58.72 -64 53.44 -64 48 C-69.28 48 -74.56 48 -80 48 C-80 42.72 -80 37.44 -80 32 C-74.72 32 -69.44 32 -64 32 C-64 26.72 -64 21.44 -64 16 C-42.88 16 -21.76 16 0 16 C0 10.72 0 5.44 0 0 Z " fill="#2F2F2F" transform="translate(896,224)"/>
<path d="M0 0 C26.4 0 52.8 0 80 0 C80 5.28 80 10.56 80 16 C74.72 16 69.44 16 64 16 C64 21.28 64 26.56 64 32 C58.72 32 53.44 32 48 32 C48 42.56 48 53.12 48 64 C42.72 64 37.44 64 32 64 C32 74.56 32 85.12 32 96 C26.72 96 21.44 96 16 96 C16 90.72 16 85.44 16 80 C5.44 80 -5.12 80 -16 80 C-16 64.16 -16 48.32 -16 32 C-10.72 32 -5.44 32 0 32 C0 21.44 0 10.88 0 0 Z " fill="#E4E6DA" transform="translate(64,480)"/>
<path d="M0 0 C15.84 0 31.68 0 48 0 C48 5.28 48 10.56 48 16 C53.28 16 58.56 16 64 16 C64 31.84 64 47.68 64 64 C58.72 64 53.44 64 48 64 C48 69.28 48 74.56 48 80 C32.16 80 16.32 80 0 80 C0 74.72 0 69.44 0 64 C-5.28 64 -10.56 64 -16 64 C-16 48.16 -16 32.32 -16 16 C-10.72 16 -5.44 16 0 16 C0 10.72 0 5.44 0 0 Z " fill="#FF8D53" transform="translate(512,208)"/>
<path d="M0 0 C15.84 0 31.68 0 48 0 C48 5.28 48 10.56 48 16 C53.28 16 58.56 16 64 16 C64 31.84 64 47.68 64 64 C58.72 64 53.44 64 48 64 C48 69.28 48 74.56 48 80 C32.16 80 16.32 80 0 80 C0 74.72 0 69.44 0 64 C-5.28 64 -10.56 64 -16 64 C-16 48.16 -16 32.32 -16 16 C-10.72 16 -5.44 16 0 16 C0 10.72 0 5.44 0 0 Z " fill="#FF8D53" transform="translate(384,208)"/>
<path d="M0 0 C15.84 0 31.68 0 48 0 C48 15.84 48 31.68 48 48 C58.56 48 69.12 48 80 48 C80 58.56 80 69.12 80 80 C85.28 80 90.56 80 96 80 C96 85.28 96 90.56 96 96 C80.16 96 64.32 96 48 96 C48 90.72 48 85.44 48 80 C37.44 80 26.88 80 16 80 C16 69.44 16 58.88 16 48 C10.72 48 5.44 48 0 48 C0 32.16 0 16.32 0 0 Z " fill="#E4E6DA" transform="translate(64,608)"/>
<path d="M0 0 C10.56 0 21.12 0 32 0 C32 5.28 32 10.56 32 16 C37.28 16 42.56 16 48 16 C48 37.12 48 58.24 48 80 C42.72 80 37.44 80 32 80 C32 85.28 32 90.56 32 96 C21.44 96 10.88 96 0 96 C0 90.72 0 85.44 0 80 C-5.28 80 -10.56 80 -16 80 C-16 58.88 -16 37.76 -16 16 C-10.72 16 -5.44 16 0 16 C0 10.72 0 5.44 0 0 Z " fill="#E4E6DA" transform="translate(816,432)"/>
<path d="M0 0 C36.96 0 73.92 0 112 0 C112 10.56 112 21.12 112 32 C96.16 32 80.32 32 64 32 C64 37.28 64 42.56 64 48 C48.16 48 32.32 48 16 48 C16 53.28 16 58.56 16 64 C10.72 64 5.44 64 0 64 C0 42.88 0 21.76 0 0 Z " fill="#3D3D3D" transform="translate(816,160)"/>
<path d="M0 0 C10.56 0 21.12 0 32 0 C32 5.28 32 10.56 32 16 C37.28 16 42.56 16 48 16 C48 37.12 48 58.24 48 80 C32.16 80 16.32 80 0 80 C0 74.72 0 69.44 0 64 C-5.28 64 -10.56 64 -16 64 C-16 58.72 -16 53.44 -16 48 C-21.28 48 -26.56 48 -32 48 C-32 42.72 -32 37.44 -32 32 C-26.72 32 -21.44 32 -16 32 C-16 26.72 -16 21.44 -16 16 C-10.72 16 -5.44 16 0 16 C0 10.72 0 5.44 0 0 Z " fill="#FFB894" transform="translate(336,736)"/>
<path d="M0 0 C5.28 0 10.56 0 16 0 C16 89.76 16 179.52 16 272 C10.72 272 5.44 272 0 272 C0 182.24 0 92.48 0 0 Z " fill="#122435" transform="translate(496,544)"/>
<path d="M0 0 C5.28 0 10.56 0 16 0 C16 5.28 16 10.56 16 16 C21.28 16 26.56 16 32 16 C32 10.72 32 5.44 32 0 C37.28 0 42.56 0 48 0 C48 15.84 48 31.68 48 48 C63.84 48 79.68 48 96 48 C96 53.28 96 58.56 96 64 C85.44 64 74.88 64 64 64 C64 69.28 64 74.56 64 80 C58.72 80 53.44 80 48 80 C48 74.72 48 69.44 48 64 C42.72 64 37.44 64 32 64 C32 53.44 32 42.88 32 32 C26.72 32 21.44 32 16 32 C16 58.4 16 84.8 16 112 C10.72 112 5.44 112 0 112 C0 75.04 0 38.08 0 0 Z " fill="#122435" transform="translate(752,608)"/>
<path d="M0 0 C21.12 0 42.24 0 64 0 C64 5.28 64 10.56 64 16 C58.72 16 53.44 16 48 16 C48 26.56 48 37.12 48 48 C42.72 48 37.44 48 32 48 C32 53.28 32 58.56 32 64 C16.16 64 0.32 64 -16 64 C-16 48.16 -16 32.32 -16 16 C-10.72 16 -5.44 16 0 16 C0 10.72 0 5.44 0 0 Z " fill="#D0CEBF" transform="translate(816,592)"/>
<path d="M0 0 C5.28 0 10.56 0 16 0 C16 5.28 16 10.56 16 16 C26.56 16 37.12 16 48 16 C48 21.28 48 26.56 48 32 C42.72 32 37.44 32 32 32 C32 68.96 32 105.92 32 144 C37.28 144 42.56 144 48 144 C48 149.28 48 154.56 48 160 C37.44 160 26.88 160 16 160 C16 165.28 16 170.56 16 176 C10.72 176 5.44 176 0 176 C0 165.44 0 154.88 0 144 C5.28 144 10.56 144 16 144 C16 107.04 16 70.08 16 32 C10.72 32 5.44 32 0 32 C0 21.44 0 10.88 0 0 Z " fill="#122435" transform="translate(640,160)"/>
<path d="M0 0 C5.28 0 10.56 0 16 0 C16 10.56 16 21.12 16 32 C10.72 32 5.44 32 0 32 C0 68.96 0 105.92 0 144 C5.28 144 10.56 144 16 144 C16 154.56 16 165.12 16 176 C10.72 176 5.44 176 0 176 C0 170.72 0 165.44 0 160 C-10.56 160 -21.12 160 -32 160 C-32 154.72 -32 149.44 -32 144 C-26.72 144 -21.44 144 -16 144 C-16 107.04 -16 70.08 -16 32 C-21.28 32 -26.56 32 -32 32 C-32 26.72 -32 21.44 -32 16 C-21.44 16 -10.88 16 0 16 C0 10.72 0 5.44 0 0 Z " fill="#122435" transform="translate(288,160)"/>
<path d="M0 0 C10.56 0 21.12 0 32 0 C32 26.4 32 52.8 32 80 C26.72 80 21.44 80 16 80 C16 85.28 16 90.56 16 96 C10.72 96 5.44 96 0 96 C0 85.44 0 74.88 0 64 C-5.28 64 -10.56 64 -16 64 C-16 48.16 -16 32.32 -16 16 C-10.72 16 -5.44 16 0 16 C0 10.72 0 5.44 0 0 Z " fill="#D0CEBF" transform="translate(144,592)"/>
<path d="M0 0 C15.84 0 31.68 0 48 0 C48 5.28 48 10.56 48 16 C58.56 16 69.12 16 80 16 C80 26.56 80 37.12 80 48 C74.72 48 69.44 48 64 48 C64 53.28 64 58.56 64 64 C58.72 64 53.44 64 48 64 C48 69.28 48 74.56 48 80 C42.72 80 37.44 80 32 80 C32 69.44 32 58.88 32 48 C26.72 48 21.44 48 16 48 C16 37.44 16 26.88 16 16 C10.72 16 5.44 16 0 16 C0 10.72 0 5.44 0 0 Z " fill="#122435" transform="translate(688,480)"/>
<path d="M0 0 C5.28 0 10.56 0 16 0 C16 10.56 16 21.12 16 32 C37.12 32 58.24 32 80 32 C80 37.28 80 42.56 80 48 C32.48 48 -15.04 48 -64 48 C-64 42.72 -64 37.44 -64 32 C-42.88 32 -21.76 32 0 32 C0 21.44 0 10.88 0 0 Z " fill="#122435" transform="translate(464,896)"/>
<path d="M0 0 C5.28 0 10.56 0 16 0 C16 5.28 16 10.56 16 16 C21.28 16 26.56 16 32 16 C32 21.28 32 26.56 32 32 C47.84 32 63.68 32 80 32 C80 37.28 80 42.56 80 48 C74.72 48 69.44 48 64 48 C64 63.84 64 79.68 64 96 C58.72 96 53.44 96 48 96 C48 80.16 48 64.32 48 48 C37.44 48 26.88 48 16 48 C16 42.72 16 37.44 16 32 C10.72 32 5.44 32 0 32 C0 21.44 0 10.88 0 0 Z " fill="#122435" transform="translate(64,560)"/>
<path d="M0 0 C10.56 0 21.12 0 32 0 C32 15.84 32 31.68 32 48 C26.72 48 21.44 48 16 48 C16 53.28 16 58.56 16 64 C5.44 64 -5.12 64 -16 64 C-16 48.16 -16 32.32 -16 16 C-10.72 16 -5.44 16 0 16 C0 10.72 0 5.44 0 0 Z " fill="#D0CEBF" transform="translate(144,480)"/>
<path d="M0 0 C5.28 0 10.56 0 16 0 C16 5.28 16 10.56 16 16 C37.12 16 58.24 16 80 16 C80 21.28 80 26.56 80 32 C64.16 32 48.32 32 32 32 C32 42.56 32 53.12 32 64 C26.72 64 21.44 64 16 64 C16 53.44 16 42.88 16 32 C0.16 32 -15.68 32 -32 32 C-32 26.72 -32 21.44 -32 16 C-21.44 16 -10.88 16 0 16 C0 10.72 0 5.44 0 0 Z " fill="#122435" transform="translate(448,400)"/>
<path d="M0 0 C10.56 0 21.12 0 32 0 C32 26.4 32 52.8 32 80 C21.44 80 10.88 80 0 80 C0 53.6 0 27.2 0 0 Z " fill="#343434" transform="translate(848,336)"/>
<path d="M0 0 C5.28 0 10.56 0 16 0 C16 47.52 16 95.04 16 144 C5.44 144 -5.12 144 -16 144 C-16 138.72 -16 133.44 -16 128 C-10.72 128 -5.44 128 0 128 C0 85.76 0 43.52 0 0 Z " fill="#122435" transform="translate(176,208)"/>
<path d="M0 0 C5.28 0 10.56 0 16 0 C16 42.24 16 84.48 16 128 C21.28 128 26.56 128 32 128 C32 133.28 32 138.56 32 144 C21.44 144 10.88 144 0 144 C0 96.48 0 48.96 0 0 Z " fill="#122435" transform="translate(48,208)"/>
<path d="M0 0 C10.56 0 21.12 0 32 0 C32 5.28 32 10.56 32 16 C37.28 16 42.56 16 48 16 C48 21.28 48 26.56 48 32 C32.16 32 16.32 32 0 32 C0 42.56 0 53.12 0 64 C-5.28 64 -10.56 64 -16 64 C-16 58.72 -16 53.44 -16 48 C-21.28 48 -26.56 48 -32 48 C-32 42.72 -32 37.44 -32 32 C-26.72 32 -21.44 32 -16 32 C-16 26.72 -16 21.44 -16 16 C-10.72 16 -5.44 16 0 16 C0 10.72 0 5.44 0 0 Z " fill="#FF8D53" transform="translate(336,736)"/>
<path d="M0 0 C5.28 0 10.56 0 16 0 C16 42.24 16 84.48 16 128 C10.72 128 5.44 128 0 128 C0 117.44 0 106.88 0 96 C-5.28 96 -10.56 96 -16 96 C-16 90.72 -16 85.44 -16 80 C-10.72 80 -5.44 80 0 80 C0 53.6 0 27.2 0 0 Z " fill="#122435" transform="translate(176,592)"/>
<path d="M0 0 C5.28 0 10.56 0 16 0 C16 21.12 16 42.24 16 64 C0.16 64 -15.68 64 -32 64 C-32 53.44 -32 42.88 -32 32 C-26.72 32 -21.44 32 -16 32 C-16 26.72 -16 21.44 -16 16 C-10.72 16 -5.44 16 0 16 C0 10.72 0 5.44 0 0 Z " fill="#AAA194" transform="translate(704,240)"/>
<path d="M0 0 C26.4 0 52.8 0 80 0 C80 5.28 80 10.56 80 16 C58.88 16 37.76 16 16 16 C16 21.28 16 26.56 16 32 C5.44 32 -5.12 32 -16 32 C-16 37.28 -16 42.56 -16 48 C-21.28 48 -26.56 48 -32 48 C-32 37.44 -32 26.88 -32 16 C-21.44 16 -10.88 16 0 16 C0 10.72 0 5.44 0 0 Z " fill="#122435" transform="translate(832,128)"/>
<path d="M0 0 C42.24 0 84.48 0 128 0 C128 5.28 128 10.56 128 16 C85.76 16 43.52 16 0 16 C0 10.72 0 5.44 0 0 Z " fill="#EB7F48" transform="translate(528,720)"/>
<path d="M0 0 C42.24 0 84.48 0 128 0 C128 5.28 128 10.56 128 16 C85.76 16 43.52 16 0 16 C0 10.72 0 5.44 0 0 Z " fill="#EB7F48" transform="translate(544,656)"/>
<path d="M0 0 C15.84 0 31.68 0 48 0 C48 15.84 48 31.68 48 48 C42.72 48 37.44 48 32 48 C32 53.28 32 58.56 32 64 C26.72 64 21.44 64 16 64 C16 48.16 16 32.32 16 16 C10.72 16 5.44 16 0 16 C0 10.72 0 5.44 0 0 Z " fill="#D0CEBF" transform="translate(864,432)"/>
<path d="M0 0 C36.96 0 73.92 0 112 0 C112 5.28 112 10.56 112 16 C90.88 16 69.76 16 48 16 C48 21.28 48 26.56 48 32 C42.72 32 37.44 32 32 32 C32 26.72 32 21.44 32 16 C21.44 16 10.88 16 0 16 C0 10.72 0 5.44 0 0 Z " fill="#122435" transform="translate(416,64)"/>
<path d="M0 0 C10.56 0 21.12 0 32 0 C32 15.84 32 31.68 32 48 C26.72 48 21.44 48 16 48 C16 53.28 16 58.56 16 64 C10.72 64 5.44 64 0 64 C0 42.88 0 21.76 0 0 Z " fill="#FFFFFF" transform="translate(816,432)"/>
<path d="M0 0 C5.28 0 10.56 0 16 0 C16 36.96 16 73.92 16 112 C10.72 112 5.44 112 0 112 C0 75.04 0 38.08 0 0 Z " fill="#FFFFFF" transform="translate(64,208)"/>
<path d="M0 0 C10.56 0 21.12 0 32 0 C32 5.28 32 10.56 32 16 C37.28 16 42.56 16 48 16 C48 21.28 48 26.56 48 32 C26.88 32 5.76 32 -16 32 C-16 26.72 -16 21.44 -16 16 C-10.72 16 -5.44 16 0 16 C0 10.72 0 5.44 0 0 Z " fill="#FFCAAE" transform="translate(352,512)"/>
<path d="M0 0 C5.28 0 10.56 0 16 0 C16 31.68 16 63.36 16 96 C10.72 96 5.44 96 0 96 C0 64.32 0 32.64 0 0 Z " fill="#E4E6DA" transform="translate(112,368)"/>
<path d="M0 0 C5.28 0 10.56 0 16 0 C16 31.68 16 63.36 16 96 C10.72 96 5.44 96 0 96 C0 64.32 0 32.64 0 0 Z " fill="#FFFFFF" transform="translate(96,208)"/>
<path d="M0 0 C5.28 0 10.56 0 16 0 C16 26.4 16 52.8 16 80 C10.72 80 5.44 80 0 80 C0 53.6 0 27.2 0 0 Z " fill="#122435" transform="translate(480,816)"/>
<path d="M0 0 C5.28 0 10.56 0 16 0 C16 10.56 16 21.12 16 32 C21.28 32 26.56 32 32 32 C32 37.28 32 42.56 32 48 C16.16 48 0.32 48 -16 48 C-16 42.72 -16 37.44 -16 32 C-10.72 32 -5.44 32 0 32 C0 21.44 0 10.88 0 0 Z " fill="#122435" transform="translate(128,656)"/>
<path d="M0 0 C5.28 0 10.56 0 16 0 C16 26.4 16 52.8 16 80 C10.72 80 5.44 80 0 80 C0 53.6 0 27.2 0 0 Z " fill="#122435" transform="translate(480,464)"/>
<path d="M0 0 C26.4 0 52.8 0 80 0 C80 5.28 80 10.56 80 16 C53.6 16 27.2 16 0 16 C0 10.72 0 5.44 0 0 Z " fill="#2F2F2F" transform="translate(832,304)"/>
<path d="M0 0 C5.28 0 10.56 0 16 0 C16 26.4 16 52.8 16 80 C10.72 80 5.44 80 0 80 C0 53.6 0 27.2 0 0 Z " fill="#FFFFFF" transform="translate(128,208)"/>
<path d="M0 0 C5.28 0 10.56 0 16 0 C16 26.4 16 52.8 16 80 C10.72 80 5.44 80 0 80 C0 53.6 0 27.2 0 0 Z " fill="#FFFFFF" transform="translate(160,208)"/>
<path d="M0 0 C5.28 0 10.56 0 16 0 C16 26.4 16 52.8 16 80 C10.72 80 5.44 80 0 80 C0 53.6 0 27.2 0 0 Z " fill="#122435" transform="translate(976,176)"/>
<path d="M0 0 C5.28 0 10.56 0 16 0 C16 26.4 16 52.8 16 80 C10.72 80 5.44 80 0 80 C0 53.6 0 27.2 0 0 Z " fill="#373737" transform="translate(960,176)"/>
<path d="M0 0 C5.28 0 10.56 0 16 0 C16 26.4 16 52.8 16 80 C10.72 80 5.44 80 0 80 C0 53.6 0 27.2 0 0 Z " fill="#2F2F2F" transform="translate(800,176)"/>
<path d="M0 0 C5.28 0 10.56 0 16 0 C16 26.4 16 52.8 16 80 C10.72 80 5.44 80 0 80 C0 53.6 0 27.2 0 0 Z " fill="#122435" transform="translate(784,176)"/>
<path d="M0 0 C5.28 0 10.56 0 16 0 C16 26.4 16 52.8 16 80 C10.72 80 5.44 80 0 80 C0 53.6 0 27.2 0 0 Z " fill="#122435" transform="translate(752,176)"/>
<path d="M0 0 C26.4 0 52.8 0 80 0 C80 5.28 80 10.56 80 16 C53.6 16 27.2 16 0 16 C0 10.72 0 5.44 0 0 Z " fill="#122435" transform="translate(832,96)"/>
<path d="M0 0 C10.56 0 21.12 0 32 0 C32 10.56 32 21.12 32 32 C21.44 32 10.88 32 0 32 C0 21.44 0 10.88 0 0 Z " fill="#CD6129" transform="translate(592,784)"/>
<path d="M0 0 C5.28 0 10.56 0 16 0 C16 5.28 16 10.56 16 16 C21.28 16 26.56 16 32 16 C32 21.28 32 26.56 32 32 C26.72 32 21.44 32 16 32 C16 37.28 16 42.56 16 48 C10.72 48 5.44 48 0 48 C0 32.16 0 16.32 0 0 Z " fill="#FF8D53" transform="translate(384,768)"/>
<path d="M0 0 C21.12 0 42.24 0 64 0 C64 5.28 64 10.56 64 16 C42.88 16 21.76 16 0 16 C0 10.72 0 5.44 0 0 Z " fill="#CD6129" transform="translate(528,720)"/>
<path d="M0 0 C21.12 0 42.24 0 64 0 C64 5.28 64 10.56 64 16 C42.88 16 21.76 16 0 16 C0 10.72 0 5.44 0 0 Z " fill="#122435" transform="translate(816,688)"/>
<path d="M0 0 C21.12 0 42.24 0 64 0 C64 5.28 64 10.56 64 16 C42.88 16 21.76 16 0 16 C0 10.72 0 5.44 0 0 Z " fill="#CD6129" transform="translate(544,656)"/>
<path d="M0 0 C5.28 0 10.56 0 16 0 C16 10.56 16 21.12 16 32 C10.72 32 5.44 32 0 32 C0 37.28 0 42.56 0 48 C-5.28 48 -10.56 48 -16 48 C-16 37.44 -16 26.88 -16 16 C-10.72 16 -5.44 16 0 16 C0 10.72 0 5.44 0 0 Z " fill="#AAA194" transform="translate(160,640)"/>
<path d="M0 0 C5.28 0 10.56 0 16 0 C16 21.12 16 42.24 16 64 C10.72 64 5.44 64 0 64 C0 42.88 0 21.76 0 0 Z " fill="#122435" transform="translate(896,608)"/>
<path d="M0 0 C10.56 0 21.12 0 32 0 C32 5.28 32 10.56 32 16 C26.72 16 21.44 16 16 16 C16 21.28 16 26.56 16 32 C5.44 32 -5.12 32 -16 32 C-16 26.72 -16 21.44 -16 16 C-10.72 16 -5.44 16 0 16 C0 10.72 0 5.44 0 0 Z " fill="#E4E6DA" transform="translate(816,592)"/>
<path d="M0 0 C10.56 0 21.12 0 32 0 C32 10.56 32 21.12 32 32 C21.44 32 10.88 32 0 32 C0 21.44 0 10.88 0 0 Z " fill="#CD6129" transform="translate(608,576)"/>
<path d="M0 0 C10.56 0 21.12 0 32 0 C32 10.56 32 21.12 32 32 C21.44 32 10.88 32 0 32 C0 21.44 0 10.88 0 0 Z " fill="#CD6129" transform="translate(544,576)"/>
<path d="M0 0 C5.28 0 10.56 0 16 0 C16 5.28 16 10.56 16 16 C21.28 16 26.56 16 32 16 C32 21.28 32 26.56 32 32 C26.72 32 21.44 32 16 32 C16 37.28 16 42.56 16 48 C10.72 48 5.44 48 0 48 C0 32.16 0 16.32 0 0 Z " fill="#122435" transform="translate(736,560)"/>
<path d="M0 0 C5.28 0 10.56 0 16 0 C16 15.84 16 31.68 16 48 C10.72 48 5.44 48 0 48 C0 42.72 0 37.44 0 32 C-5.28 32 -10.56 32 -16 32 C-16 26.72 -16 21.44 -16 16 C-10.72 16 -5.44 16 0 16 C0 10.72 0 5.44 0 0 Z " fill="#FF8D53" transform="translate(320,544)"/>
<path d="M0 0 C10.56 0 21.12 0 32 0 C32 10.56 32 21.12 32 32 C21.44 32 10.88 32 0 32 C0 21.44 0 10.88 0 0 Z " fill="#D0CEBF" transform="translate(848,544)"/>
<path d="M0 0 C5.28 0 10.56 0 16 0 C16 15.84 16 31.68 16 48 C10.72 48 5.44 48 0 48 C0 42.72 0 37.44 0 32 C-5.28 32 -10.56 32 -16 32 C-16 26.72 -16 21.44 -16 16 C-10.72 16 -5.44 16 0 16 C0 10.72 0 5.44 0 0 Z " fill="#D0CEBF" transform="translate(752,528)"/>
<path d="M0 0 C10.56 0 21.12 0 32 0 C32 10.56 32 21.12 32 32 C21.44 32 10.88 32 0 32 C0 21.44 0 10.88 0 0 Z " fill="#B85827" transform="translate(592,512)"/>
<path d="M0 0 C10.56 0 21.12 0 32 0 C32 10.56 32 21.12 32 32 C21.44 32 10.88 32 0 32 C0 21.44 0 10.88 0 0 Z " fill="#B85827" transform="translate(528,512)"/>
<path d="M0 0 C5.28 0 10.56 0 16 0 C16 21.12 16 42.24 16 64 C10.72 64 5.44 64 0 64 C0 42.88 0 21.76 0 0 Z " fill="#122435" transform="translate(912,448)"/>
<path d="M0 0 C5.28 0 10.56 0 16 0 C16 21.12 16 42.24 16 64 C10.72 64 5.44 64 0 64 C0 42.88 0 21.76 0 0 Z " fill="#122435" transform="translate(864,448)"/>
<path d="M0 0 C5.28 0 10.56 0 16 0 C16 21.12 16 42.24 16 64 C10.72 64 5.44 64 0 64 C0 42.88 0 21.76 0 0 Z " fill="#122435" transform="translate(800,448)"/>
<path d="M0 0 C10.56 0 21.12 0 32 0 C32 10.56 32 21.12 32 32 C21.44 32 10.88 32 0 32 C0 21.44 0 10.88 0 0 Z " fill="#FF8D53" transform="translate(528,240)"/>
<path d="M0 0 C10.56 0 21.12 0 32 0 C32 10.56 32 21.12 32 32 C21.44 32 10.88 32 0 32 C0 21.44 0 10.88 0 0 Z " fill="#FF8D53" transform="translate(400,240)"/>
<path d="M0 0 C5.28 0 10.56 0 16 0 C16 5.28 16 10.56 16 16 C21.28 16 26.56 16 32 16 C32 21.28 32 26.56 32 32 C26.72 32 21.44 32 16 32 C16 37.28 16 42.56 16 48 C10.72 48 5.44 48 0 48 C0 32.16 0 16.32 0 0 Z " fill="#E4E6DA" transform="translate(672,192)"/>
<path d="M0 0 C5.28 0 10.56 0 16 0 C16 15.84 16 31.68 16 48 C10.72 48 5.44 48 0 48 C0 42.72 0 37.44 0 32 C-5.28 32 -10.56 32 -16 32 C-16 26.72 -16 21.44 -16 16 C-10.72 16 -5.44 16 0 16 C0 10.72 0 5.44 0 0 Z " fill="#FFFFFF" transform="translate(256,192)"/>
<path d="M0 0 C21.12 0 42.24 0 64 0 C64 5.28 64 10.56 64 16 C42.88 16 21.76 16 0 16 C0 10.72 0 5.44 0 0 Z " fill="#2F2F2F" transform="translate(848,144)"/>
<path d="M0 0 C15.84 0 31.68 0 48 0 C48 5.28 48 10.56 48 16 C32.16 16 16.32 16 0 16 C0 10.72 0 5.44 0 0 Z " fill="#122435" transform="translate(544,912)"/>
<path d="M0 0 C15.84 0 31.68 0 48 0 C48 5.28 48 10.56 48 16 C32.16 16 16.32 16 0 16 C0 10.72 0 5.44 0 0 Z " fill="#122435" transform="translate(352,912)"/>
<path d="M0 0 C5.28 0 10.56 0 16 0 C16 15.84 16 31.68 16 48 C10.72 48 5.44 48 0 48 C0 32.16 0 16.32 0 0 Z " fill="#122435" transform="translate(736,720)"/>
<path d="M0 0 C5.28 0 10.56 0 16 0 C16 15.84 16 31.68 16 48 C10.72 48 5.44 48 0 48 C0 32.16 0 16.32 0 0 Z " fill="#122435" transform="translate(192,720)"/>
<path d="M0 0 C10.56 0 21.12 0 32 0 C32 10.56 32 21.12 32 32 C26.72 32 21.44 32 16 32 C16 26.72 16 21.44 16 16 C10.72 16 5.44 16 0 16 C0 10.72 0 5.44 0 0 Z " fill="#D0CEBF" transform="translate(96,656)"/>
<path d="M0 0 C5.28 0 10.56 0 16 0 C16 5.28 16 10.56 16 16 C21.28 16 26.56 16 32 16 C32 21.28 32 26.56 32 32 C21.44 32 10.88 32 0 32 C0 21.44 0 10.88 0 0 Z " fill="#122435" transform="translate(80,656)"/>
<path d="M0 0 C5.28 0 10.56 0 16 0 C16 15.84 16 31.68 16 48 C10.72 48 5.44 48 0 48 C0 32.16 0 16.32 0 0 Z " fill="#122435" transform="translate(64,608)"/>
<path d="M0 0 C5.28 0 10.56 0 16 0 C16 10.56 16 21.12 16 32 C5.44 32 -5.12 32 -16 32 C-16 26.72 -16 21.44 -16 16 C-10.72 16 -5.44 16 0 16 C0 10.72 0 5.44 0 0 Z " fill="#122435" transform="translate(160,560)"/>
<path d="M0 0 C5.28 0 10.56 0 16 0 C16 15.84 16 31.68 16 48 C10.72 48 5.44 48 0 48 C0 32.16 0 16.32 0 0 Z " fill="#122435" transform="translate(768,528)"/>
<path d="M0 0 C10.56 0 21.12 0 32 0 C32 5.28 32 10.56 32 16 C26.72 16 21.44 16 16 16 C16 21.28 16 26.56 16 32 C10.72 32 5.44 32 0 32 C0 21.44 0 10.88 0 0 Z " fill="#122435" transform="translate(720,528)"/>
<path d="M0 0 C5.28 0 10.56 0 16 0 C16 15.84 16 31.68 16 48 C10.72 48 5.44 48 0 48 C0 32.16 0 16.32 0 0 Z " fill="#122435" transform="translate(176,512)"/>
<path d="M0 0 C5.28 0 10.56 0 16 0 C16 15.84 16 31.68 16 48 C10.72 48 5.44 48 0 48 C0 32.16 0 16.32 0 0 Z " fill="#122435" transform="translate(48,512)"/>
<path d="M0 0 C10.56 0 21.12 0 32 0 C32 10.56 32 21.12 32 32 C26.72 32 21.44 32 16 32 C16 26.72 16 21.44 16 16 C10.72 16 5.44 16 0 16 C0 10.72 0 5.44 0 0 Z " fill="#122435" transform="translate(736,496)"/>
<path d="M0 0 C5.28 0 10.56 0 16 0 C16 5.28 16 10.56 16 16 C21.28 16 26.56 16 32 16 C32 21.28 32 26.56 32 32 C21.44 32 10.88 32 0 32 C0 21.44 0 10.88 0 0 Z " fill="#E4E6DA" transform="translate(720,496)"/>
<path d="M0 0 C5.28 0 10.56 0 16 0 C16 10.56 16 21.12 16 32 C5.44 32 -5.12 32 -16 32 C-16 26.72 -16 21.44 -16 16 C-10.72 16 -5.44 16 0 16 C0 10.72 0 5.44 0 0 Z " fill="#FFFFFF" transform="translate(80,496)"/>
<path d="M0 0 C10.56 0 21.12 0 32 0 C32 10.56 32 21.12 32 32 C26.72 32 21.44 32 16 32 C16 26.72 16 21.44 16 16 C10.72 16 5.44 16 0 16 C0 10.72 0 5.44 0 0 Z " fill="#122435" transform="translate(144,480)"/>
<path d="M0 0 C10.56 0 21.12 0 32 0 C32 5.28 32 10.56 32 16 C26.72 16 21.44 16 16 16 C16 21.28 16 26.56 16 32 C10.72 32 5.44 32 0 32 C0 21.44 0 10.88 0 0 Z " fill="#122435" transform="translate(64,480)"/>
<path d="M0 0 C15.84 0 31.68 0 48 0 C48 5.28 48 10.56 48 16 C32.16 16 16.32 16 0 16 C0 10.72 0 5.44 0 0 Z " fill="#122435" transform="translate(576,416)"/>
<path d="M0 0 C15.84 0 31.68 0 48 0 C48 5.28 48 10.56 48 16 C32.16 16 16.32 16 0 16 C0 10.72 0 5.44 0 0 Z " fill="#122435" transform="translate(320,416)"/>
<path d="M0 0 C15.84 0 31.68 0 48 0 C48 5.28 48 10.56 48 16 C32.16 16 16.32 16 0 16 C0 10.72 0 5.44 0 0 Z " fill="#122435" transform="translate(528,400)"/>
<path d="M0 0 C15.84 0 31.68 0 48 0 C48 5.28 48 10.56 48 16 C32.16 16 16.32 16 0 16 C0 10.72 0 5.44 0 0 Z " fill="#122435" transform="translate(368,400)"/>
<path d="M0 0 C5.28 0 10.56 0 16 0 C16 15.84 16 31.68 16 48 C10.72 48 5.44 48 0 48 C0 32.16 0 16.32 0 0 Z " fill="#FFFFFF" transform="translate(112,368)"/>
<path d="M0 0 C5.28 0 10.56 0 16 0 C16 15.84 16 31.68 16 48 C10.72 48 5.44 48 0 48 C0 32.16 0 16.32 0 0 Z " fill="#122435" transform="translate(464,352)"/>
<path d="M0 0 C15.84 0 31.68 0 48 0 C48 5.28 48 10.56 48 16 C32.16 16 16.32 16 0 16 C0 10.72 0 5.44 0 0 Z " fill="#E4E6DA" transform="translate(496,320)"/>
<path d="M0 0 C5.28 0 10.56 0 16 0 C16 10.56 16 21.12 16 32 C5.44 32 -5.12 32 -16 32 C-16 26.72 -16 21.44 -16 16 C-10.72 16 -5.44 16 0 16 C0 10.72 0 5.44 0 0 Z " fill="#122435" transform="translate(704,272)"/>
<path d="M0 0 C15.84 0 31.68 0 48 0 C48 5.28 48 10.56 48 16 C32.16 16 16.32 16 0 16 C0 10.72 0 5.44 0 0 Z " fill="#FFFFFF" transform="translate(512,272)"/>
<path d="M0 0 C15.84 0 31.68 0 48 0 C48 5.28 48 10.56 48 16 C32.16 16 16.32 16 0 16 C0 10.72 0 5.44 0 0 Z " fill="#FFFFFF" transform="translate(384,272)"/>
<path d="M0 0 C5.28 0 10.56 0 16 0 C16 5.28 16 10.56 16 16 C21.28 16 26.56 16 32 16 C32 21.28 32 26.56 32 32 C21.44 32 10.88 32 0 32 C0 21.44 0 10.88 0 0 Z " fill="#122435" transform="translate(224,272)"/>
<path d="M0 0 C5.28 0 10.56 0 16 0 C16 10.56 16 21.12 16 32 C5.44 32 -5.12 32 -16 32 C-16 26.72 -16 21.44 -16 16 C-10.72 16 -5.44 16 0 16 C0 10.72 0 5.44 0 0 Z " fill="#122435" transform="translate(928,256)"/>
<path d="M0 0 C5.28 0 10.56 0 16 0 C16 5.28 16 10.56 16 16 C21.28 16 26.56 16 32 16 C32 21.28 32 26.56 32 32 C21.44 32 10.88 32 0 32 C0 21.44 0 10.88 0 0 Z " fill="#122435" transform="translate(800,256)"/>
<path d="M0 0 C5.28 0 10.56 0 16 0 C16 15.84 16 31.68 16 48 C10.72 48 5.44 48 0 48 C0 32.16 0 16.32 0 0 Z " fill="#122435" transform="translate(720,224)"/>
<path d="M0 0 C5.28 0 10.56 0 16 0 C16 15.84 16 31.68 16 48 C10.72 48 5.44 48 0 48 C0 32.16 0 16.32 0 0 Z " fill="#FFFFFF" transform="translate(560,224)"/>
<path d="M0 0 C5.28 0 10.56 0 16 0 C16 15.84 16 31.68 16 48 C10.72 48 5.44 48 0 48 C0 32.16 0 16.32 0 0 Z " fill="#FFFFFF" transform="translate(496,224)"/>
<path d="M0 0 C5.28 0 10.56 0 16 0 C16 15.84 16 31.68 16 48 C10.72 48 5.44 48 0 48 C0 32.16 0 16.32 0 0 Z " fill="#FFFFFF" transform="translate(432,224)"/>
<path d="M0 0 C5.28 0 10.56 0 16 0 C16 15.84 16 31.68 16 48 C10.72 48 5.44 48 0 48 C0 32.16 0 16.32 0 0 Z " fill="#FFFFFF" transform="translate(368,224)"/>
<path d="M0 0 C5.28 0 10.56 0 16 0 C16 15.84 16 31.68 16 48 C10.72 48 5.44 48 0 48 C0 32.16 0 16.32 0 0 Z " fill="#122435" transform="translate(208,224)"/>
<path d="M0 0 C15.84 0 31.68 0 48 0 C48 5.28 48 10.56 48 16 C32.16 16 16.32 16 0 16 C0 10.72 0 5.44 0 0 Z " fill="#FFFFFF" transform="translate(512,208)"/>
<path d="M0 0 C15.84 0 31.68 0 48 0 C48 5.28 48 10.56 48 16 C32.16 16 16.32 16 0 16 C0 10.72 0 5.44 0 0 Z " fill="#FFFFFF" transform="translate(384,208)"/>
<path d="M0 0 C5.28 0 10.56 0 16 0 C16 15.84 16 31.68 16 48 C10.72 48 5.44 48 0 48 C0 32.16 0 16.32 0 0 Z " fill="#E4E6DA" transform="translate(64,208)"/>
<path d="M0 0 C10.56 0 21.12 0 32 0 C32 10.56 32 21.12 32 32 C26.72 32 21.44 32 16 32 C16 26.72 16 21.44 16 16 C10.72 16 5.44 16 0 16 C0 10.72 0 5.44 0 0 Z " fill="#122435" transform="translate(688,192)"/>
<path d="M0 0 C10.56 0 21.12 0 32 0 C32 5.28 32 10.56 32 16 C26.72 16 21.44 16 16 16 C16 21.28 16 26.56 16 32 C10.72 32 5.44 32 0 32 C0 21.44 0 10.88 0 0 Z " fill="#122435" transform="translate(224,192)"/>
<path d="M0 0 C10.56 0 21.12 0 32 0 C32 10.56 32 21.12 32 32 C26.72 32 21.44 32 16 32 C16 26.72 16 21.44 16 16 C10.72 16 5.44 16 0 16 C0 10.72 0 5.44 0 0 Z " fill="#122435" transform="translate(912,144)"/>
<path d="M0 0 C5.28 0 10.56 0 16 0 C16 15.84 16 31.68 16 48 C10.72 48 5.44 48 0 48 C0 32.16 0 16.32 0 0 Z " fill="#122435" transform="translate(464,96)"/>
<path d="M0 0 C15.84 0 31.68 0 48 0 C48 5.28 48 10.56 48 16 C32.16 16 16.32 16 0 16 C0 10.72 0 5.44 0 0 Z " fill="#122435" transform="translate(528,80)"/>
<path d="M0 0 C15.84 0 31.68 0 48 0 C48 5.28 48 10.56 48 16 C32.16 16 16.32 16 0 16 C0 10.72 0 5.44 0 0 Z " fill="#122435" transform="translate(368,80)"/>
<path d="M0 0 C10.56 0 21.12 0 32 0 C32 5.28 32 10.56 32 16 C21.44 16 10.88 16 0 16 C0 10.72 0 5.44 0 0 Z " fill="#122435" transform="translate(592,896)"/>
<path d="M0 0 C10.56 0 21.12 0 32 0 C32 5.28 32 10.56 32 16 C21.44 16 10.88 16 0 16 C0 10.72 0 5.44 0 0 Z " fill="#122435" transform="translate(320,896)"/>
<path d="M0 0 C10.56 0 21.12 0 32 0 C32 5.28 32 10.56 32 16 C21.44 16 10.88 16 0 16 C0 10.72 0 5.44 0 0 Z " fill="#122435" transform="translate(640,864)"/>
<path d="M0 0 C10.56 0 21.12 0 32 0 C32 5.28 32 10.56 32 16 C21.44 16 10.88 16 0 16 C0 10.72 0 5.44 0 0 Z " fill="#122435" transform="translate(272,864)"/>
<path d="M0 0 C10.56 0 21.12 0 32 0 C32 5.28 32 10.56 32 16 C21.44 16 10.88 16 0 16 C0 10.72 0 5.44 0 0 Z " fill="#122435" transform="translate(352,816)"/>
<path d="M0 0 C5.28 0 10.56 0 16 0 C16 10.56 16 21.12 16 32 C10.72 32 5.44 32 0 32 C0 21.44 0 10.88 0 0 Z " fill="#122435" transform="translate(704,800)"/>
<path d="M0 0 C10.56 0 21.12 0 32 0 C32 5.28 32 10.56 32 16 C21.44 16 10.88 16 0 16 C0 10.72 0 5.44 0 0 Z " fill="#FFCAAE" transform="translate(352,800)"/>
<path d="M0 0 C5.28 0 10.56 0 16 0 C16 10.56 16 21.12 16 32 C10.72 32 5.44 32 0 32 C0 21.44 0 10.88 0 0 Z " fill="#122435" transform="translate(224,800)"/>
<path d="M0 0 C5.28 0 10.56 0 16 0 C16 10.56 16 21.12 16 32 C10.72 32 5.44 32 0 32 C0 21.44 0 10.88 0 0 Z " fill="#122435" transform="translate(720,768)"/>
<path d="M0 0 C5.28 0 10.56 0 16 0 C16 10.56 16 21.12 16 32 C10.72 32 5.44 32 0 32 C0 21.44 0 10.88 0 0 Z " fill="#122435" transform="translate(208,768)"/>
<path d="M0 0 C10.56 0 21.12 0 32 0 C32 5.28 32 10.56 32 16 C21.44 16 10.88 16 0 16 C0 10.72 0 5.44 0 0 Z " fill="#122435" transform="translate(336,736)"/>
<path d="M0 0 C10.56 0 21.12 0 32 0 C32 5.28 32 10.56 32 16 C21.44 16 10.88 16 0 16 C0 10.72 0 5.44 0 0 Z " fill="#B85827" transform="translate(528,720)"/>
<path d="M0 0 C10.56 0 21.12 0 32 0 C32 5.28 32 10.56 32 16 C21.44 16 10.88 16 0 16 C0 10.72 0 5.44 0 0 Z " fill="#B85827" transform="translate(544,656)"/>
<path d="M0 0 C5.28 0 10.56 0 16 0 C16 10.56 16 21.12 16 32 C10.72 32 5.44 32 0 32 C0 21.44 0 10.88 0 0 Z " fill="#122435" transform="translate(864,608)"/>
<path d="M0 0 C5.28 0 10.56 0 16 0 C16 10.56 16 21.12 16 32 C10.72 32 5.44 32 0 32 C0 21.44 0 10.88 0 0 Z " fill="#E4E6DA" transform="translate(128,608)"/>
<path d="M0 0 C5.28 0 10.56 0 16 0 C16 10.56 16 21.12 16 32 C10.72 32 5.44 32 0 32 C0 21.44 0 10.88 0 0 Z " fill="#B85827" transform="translate(608,576)"/>
<path d="M0 0 C5.28 0 10.56 0 16 0 C16 10.56 16 21.12 16 32 C10.72 32 5.44 32 0 32 C0 21.44 0 10.88 0 0 Z " fill="#B85827" transform="translate(544,576)"/>
<path d="M0 0 C10.56 0 21.12 0 32 0 C32 5.28 32 10.56 32 16 C21.44 16 10.88 16 0 16 C0 10.72 0 5.44 0 0 Z " fill="#122435" transform="translate(336,592)"/>
<path d="M0 0 C10.56 0 21.12 0 32 0 C32 5.28 32 10.56 32 16 C21.44 16 10.88 16 0 16 C0 10.72 0 5.44 0 0 Z " fill="#FF8D53" transform="translate(336,576)"/>
<path d="M0 0 C5.28 0 10.56 0 16 0 C16 10.56 16 21.12 16 32 C10.72 32 5.44 32 0 32 C0 21.44 0 10.88 0 0 Z " fill="#122435" transform="translate(192,560)"/>
<path d="M0 0 C5.28 0 10.56 0 16 0 C16 10.56 16 21.12 16 32 C10.72 32 5.44 32 0 32 C0 21.44 0 10.88 0 0 Z " fill="#122435" transform="translate(96,544)"/>
<path d="M0 0 C5.28 0 10.56 0 16 0 C16 10.56 16 21.12 16 32 C10.72 32 5.44 32 0 32 C0 21.44 0 10.88 0 0 Z " fill="#122435" transform="translate(208,528)"/>
<path d="M0 0 C10.56 0 21.12 0 32 0 C32 5.28 32 10.56 32 16 C21.44 16 10.88 16 0 16 C0 10.72 0 5.44 0 0 Z " fill="#CD6129" transform="translate(592,512)"/>
<path d="M0 0 C10.56 0 21.12 0 32 0 C32 5.28 32 10.56 32 16 C21.44 16 10.88 16 0 16 C0 10.72 0 5.44 0 0 Z " fill="#CD6129" transform="translate(528,512)"/>
<path d="M0 0 C10.56 0 21.12 0 32 0 C32 5.28 32 10.56 32 16 C21.44 16 10.88 16 0 16 C0 10.72 0 5.44 0 0 Z " fill="#122435" transform="translate(352,512)"/>
<path d="M0 0 C5.28 0 10.56 0 16 0 C16 10.56 16 21.12 16 32 C10.72 32 5.44 32 0 32 C0 21.44 0 10.88 0 0 Z " fill="#122435" transform="translate(112,512)"/>
<path d="M0 0 C5.28 0 10.56 0 16 0 C16 10.56 16 21.12 16 32 C10.72 32 5.44 32 0 32 C0 21.44 0 10.88 0 0 Z " fill="#122435" transform="translate(224,496)"/>
<path d="M0 0 C10.56 0 21.12 0 32 0 C32 5.28 32 10.56 32 16 C21.44 16 10.88 16 0 16 C0 10.72 0 5.44 0 0 Z " fill="#122435" transform="translate(640,448)"/>
<path d="M0 0 C10.56 0 21.12 0 32 0 C32 5.28 32 10.56 32 16 C21.44 16 10.88 16 0 16 C0 10.72 0 5.44 0 0 Z " fill="#122435" transform="translate(272,448)"/>
<path d="M0 0 C5.28 0 10.56 0 16 0 C16 10.56 16 21.12 16 32 C10.72 32 5.44 32 0 32 C0 21.44 0 10.88 0 0 Z " fill="#3D3D3D" transform="translate(848,336)"/>
<path d="M0 0 C10.56 0 21.12 0 32 0 C32 5.28 32 10.56 32 16 C21.44 16 10.88 16 0 16 C0 10.72 0 5.44 0 0 Z " fill="#122435" transform="translate(912,304)"/>
<path d="M0 0 C10.56 0 21.12 0 32 0 C32 5.28 32 10.56 32 16 C21.44 16 10.88 16 0 16 C0 10.72 0 5.44 0 0 Z " fill="#122435" transform="translate(800,304)"/>
<path d="M0 0 C10.56 0 21.12 0 32 0 C32 5.28 32 10.56 32 16 C21.44 16 10.88 16 0 16 C0 10.72 0 5.44 0 0 Z " fill="#2F2F2F" transform="translate(912,288)"/>
<path d="M0 0 C10.56 0 21.12 0 32 0 C32 5.28 32 10.56 32 16 C21.44 16 10.88 16 0 16 C0 10.72 0 5.44 0 0 Z " fill="#373737" transform="translate(800,288)"/>
<path d="M0 0 C5.28 0 10.56 0 16 0 C16 10.56 16 21.12 16 32 C10.72 32 5.44 32 0 32 C0 21.44 0 10.88 0 0 Z " fill="#122435" transform="translate(960,256)"/>
<path d="M0 0 C5.28 0 10.56 0 16 0 C16 10.56 16 21.12 16 32 C10.72 32 5.44 32 0 32 C0 21.44 0 10.88 0 0 Z " fill="#122435" transform="translate(768,256)"/>
<path d="M0 0 C5.28 0 10.56 0 16 0 C16 10.56 16 21.12 16 32 C10.72 32 5.44 32 0 32 C0 21.44 0 10.88 0 0 Z " fill="#2F2F2F" transform="translate(960,224)"/>
<path d="M0 0 C5.28 0 10.56 0 16 0 C16 10.56 16 21.12 16 32 C10.72 32 5.44 32 0 32 C0 21.44 0 10.88 0 0 Z " fill="#E4E6DA" transform="translate(128,208)"/>
<path d="M0 0 C5.28 0 10.56 0 16 0 C16 10.56 16 21.12 16 32 C10.72 32 5.44 32 0 32 C0 21.44 0 10.88 0 0 Z " fill="#E4E6DA" transform="translate(96,208)"/>
<path d="M0 0 C10.56 0 21.12 0 32 0 C32 5.28 32 10.56 32 16 C21.44 16 10.88 16 0 16 C0 10.72 0 5.44 0 0 Z " fill="#2F2F2F" transform="translate(816,160)"/>
<path d="M0 0 C5.28 0 10.56 0 16 0 C16 10.56 16 21.12 16 32 C10.72 32 5.44 32 0 32 C0 21.44 0 10.88 0 0 Z " fill="#122435" transform="translate(960,144)"/>
<path d="M0 0 C5.28 0 10.56 0 16 0 C16 10.56 16 21.12 16 32 C10.72 32 5.44 32 0 32 C0 21.44 0 10.88 0 0 Z " fill="#122435" transform="translate(768,144)"/>
<path d="M0 0 C10.56 0 21.12 0 32 0 C32 5.28 32 10.56 32 16 C21.44 16 10.88 16 0 16 C0 10.72 0 5.44 0 0 Z " fill="#3D3D3D" transform="translate(912,128)"/>
<path d="M0 0 C10.56 0 21.12 0 32 0 C32 5.28 32 10.56 32 16 C21.44 16 10.88 16 0 16 C0 10.72 0 5.44 0 0 Z " fill="#122435" transform="translate(912,112)"/>
<path d="M0 0 C10.56 0 21.12 0 32 0 C32 5.28 32 10.56 32 16 C21.44 16 10.88 16 0 16 C0 10.72 0 5.44 0 0 Z " fill="#122435" transform="translate(800,112)"/>
<path d="M0 0 C5.28 0 10.56 0 16 0 C16 5.28 16 10.56 16 16 C10.72 16 5.44 16 0 16 C0 10.72 0 5.44 0 0 Z " fill="#122435" transform="translate(624,880)"/>
<path d="M0 0 C5.28 0 10.56 0 16 0 C16 5.28 16 10.56 16 16 C10.72 16 5.44 16 0 16 C0 10.72 0 5.44 0 0 Z " fill="#122435" transform="translate(304,880)"/>
<path d="M0 0 C5.28 0 10.56 0 16 0 C16 5.28 16 10.56 16 16 C10.72 16 5.44 16 0 16 C0 10.72 0 5.44 0 0 Z " fill="#122435" transform="translate(672,848)"/>
<path d="M0 0 C5.28 0 10.56 0 16 0 C16 5.28 16 10.56 16 16 C10.72 16 5.44 16 0 16 C0 10.72 0 5.44 0 0 Z " fill="#122435" transform="translate(256,848)"/>
<path d="M0 0 C5.28 0 10.56 0 16 0 C16 5.28 16 10.56 16 16 C10.72 16 5.44 16 0 16 C0 10.72 0 5.44 0 0 Z " fill="#122435" transform="translate(688,832)"/>
<path d="M0 0 C5.28 0 10.56 0 16 0 C16 5.28 16 10.56 16 16 C10.72 16 5.44 16 0 16 C0 10.72 0 5.44 0 0 Z " fill="#122435" transform="translate(240,832)"/>
<path d="M0 0 C5.28 0 10.56 0 16 0 C16 5.28 16 10.56 16 16 C10.72 16 5.44 16 0 16 C0 10.72 0 5.44 0 0 Z " fill="#EB7F48" transform="translate(608,800)"/>
<path d="M0 0 C5.28 0 10.56 0 16 0 C16 5.28 16 10.56 16 16 C10.72 16 5.44 16 0 16 C0 10.72 0 5.44 0 0 Z " fill="#CD6129" transform="translate(592,800)"/>
<path d="M0 0 C5.28 0 10.56 0 16 0 C16 5.28 16 10.56 16 16 C10.72 16 5.44 16 0 16 C0 10.72 0 5.44 0 0 Z " fill="#122435" transform="translate(384,800)"/>
<path d="M0 0 C5.28 0 10.56 0 16 0 C16 5.28 16 10.56 16 16 C10.72 16 5.44 16 0 16 C0 10.72 0 5.44 0 0 Z " fill="#122435" transform="translate(336,800)"/>
<path d="M0 0 C5.28 0 10.56 0 16 0 C16 5.28 16 10.56 16 16 C10.72 16 5.44 16 0 16 C0 10.72 0 5.44 0 0 Z " fill="#B85827" transform="translate(592,784)"/>
<path d="M0 0 C5.28 0 10.56 0 16 0 C16 5.28 16 10.56 16 16 C10.72 16 5.44 16 0 16 C0 10.72 0 5.44 0 0 Z " fill="#122435" transform="translate(400,784)"/>
<path d="M0 0 C5.28 0 10.56 0 16 0 C16 5.28 16 10.56 16 16 C10.72 16 5.44 16 0 16 C0 10.72 0 5.44 0 0 Z " fill="#FFCAAE" transform="translate(336,784)"/>
<path d="M0 0 C5.28 0 10.56 0 16 0 C16 5.28 16 10.56 16 16 C10.72 16 5.44 16 0 16 C0 10.72 0 5.44 0 0 Z " fill="#122435" transform="translate(320,784)"/>
<path d="M0 0 C5.28 0 10.56 0 16 0 C16 5.28 16 10.56 16 16 C10.72 16 5.44 16 0 16 C0 10.72 0 5.44 0 0 Z " fill="#122435" transform="translate(384,768)"/>
<path d="M0 0 C5.28 0 10.56 0 16 0 C16 5.28 16 10.56 16 16 C10.72 16 5.44 16 0 16 C0 10.72 0 5.44 0 0 Z " fill="#FF8D53" transform="translate(368,768)"/>
<path d="M0 0 C5.28 0 10.56 0 16 0 C16 5.28 16 10.56 16 16 C10.72 16 5.44 16 0 16 C0 10.72 0 5.44 0 0 Z " fill="#122435" transform="translate(304,768)"/>
<path d="M0 0 C5.28 0 10.56 0 16 0 C16 5.28 16 10.56 16 16 C10.72 16 5.44 16 0 16 C0 10.72 0 5.44 0 0 Z " fill="#122435" transform="translate(368,752)"/>
<path d="M0 0 C5.28 0 10.56 0 16 0 C16 5.28 16 10.56 16 16 C10.72 16 5.44 16 0 16 C0 10.72 0 5.44 0 0 Z " fill="#122435" transform="translate(320,752)"/>
<path d="M0 0 C5.28 0 10.56 0 16 0 C16 5.28 16 10.56 16 16 C10.72 16 5.44 16 0 16 C0 10.72 0 5.44 0 0 Z " fill="#122435" transform="translate(880,672)"/>
<path d="M0 0 C5.28 0 10.56 0 16 0 C16 5.28 16 10.56 16 16 C10.72 16 5.44 16 0 16 C0 10.72 0 5.44 0 0 Z " fill="#122435" transform="translate(848,640)"/>
<path d="M0 0 C5.28 0 10.56 0 16 0 C16 5.28 16 10.56 16 16 C10.72 16 5.44 16 0 16 C0 10.72 0 5.44 0 0 Z " fill="#FFFFFF" transform="translate(80,608)"/>
<path d="M0 0 C5.28 0 10.56 0 16 0 C16 5.28 16 10.56 16 16 C10.72 16 5.44 16 0 16 C0 10.72 0 5.44 0 0 Z " fill="#122435" transform="translate(800,592)"/>
<path d="M0 0 C5.28 0 10.56 0 16 0 C16 5.28 16 10.56 16 16 C10.72 16 5.44 16 0 16 C0 10.72 0 5.44 0 0 Z " fill="#E4E6DA" transform="translate(752,592)"/>
<path d="M0 0 C5.28 0 10.56 0 16 0 C16 5.28 16 10.56 16 16 C10.72 16 5.44 16 0 16 C0 10.72 0 5.44 0 0 Z " fill="#E4E6DA" transform="translate(144,592)"/>
<path d="M0 0 C5.28 0 10.56 0 16 0 C16 5.28 16 10.56 16 16 C10.72 16 5.44 16 0 16 C0 10.72 0 5.44 0 0 Z " fill="#122435" transform="translate(784,576)"/>
<path d="M0 0 C5.28 0 10.56 0 16 0 C16 5.28 16 10.56 16 16 C10.72 16 5.44 16 0 16 C0 10.72 0 5.44 0 0 Z " fill="#E4E6DA" transform="translate(768,576)"/>
<path d="M0 0 C5.28 0 10.56 0 16 0 C16 5.28 16 10.56 16 16 C10.72 16 5.44 16 0 16 C0 10.72 0 5.44 0 0 Z " fill="#EB7F48" transform="translate(624,576)"/>
<path d="M0 0 C5.28 0 10.56 0 16 0 C16 5.28 16 10.56 16 16 C10.72 16 5.44 16 0 16 C0 10.72 0 5.44 0 0 Z " fill="#CD6129" transform="translate(608,576)"/>
<path d="M0 0 C5.28 0 10.56 0 16 0 C16 5.28 16 10.56 16 16 C10.72 16 5.44 16 0 16 C0 10.72 0 5.44 0 0 Z " fill="#EB7F48" transform="translate(560,576)"/>
<path d="M0 0 C5.28 0 10.56 0 16 0 C16 5.28 16 10.56 16 16 C10.72 16 5.44 16 0 16 C0 10.72 0 5.44 0 0 Z " fill="#CD6129" transform="translate(544,576)"/>
<path d="M0 0 C5.28 0 10.56 0 16 0 C16 5.28 16 10.56 16 16 C10.72 16 5.44 16 0 16 C0 10.72 0 5.44 0 0 Z " fill="#122435" transform="translate(368,576)"/>
<path d="M0 0 C5.28 0 10.56 0 16 0 C16 5.28 16 10.56 16 16 C10.72 16 5.44 16 0 16 C0 10.72 0 5.44 0 0 Z " fill="#122435" transform="translate(320,576)"/>
<path d="M0 0 C5.28 0 10.56 0 16 0 C16 5.28 16 10.56 16 16 C10.72 16 5.44 16 0 16 C0 10.72 0 5.44 0 0 Z " fill="#AAA194" transform="translate(864,560)"/>
<path d="M0 0 C5.28 0 10.56 0 16 0 C16 5.28 16 10.56 16 16 C10.72 16 5.44 16 0 16 C0 10.72 0 5.44 0 0 Z " fill="#D0CEBF" transform="translate(848,560)"/>
<path d="M0 0 C5.28 0 10.56 0 16 0 C16 5.28 16 10.56 16 16 C10.72 16 5.44 16 0 16 C0 10.72 0 5.44 0 0 Z " fill="#122435" transform="translate(384,560)"/>
<path d="M0 0 C5.28 0 10.56 0 16 0 C16 5.28 16 10.56 16 16 C10.72 16 5.44 16 0 16 C0 10.72 0 5.44 0 0 Z " fill="#FF8D53" transform="translate(368,560)"/>
<path d="M0 0 C5.28 0 10.56 0 16 0 C16 5.28 16 10.56 16 16 C10.72 16 5.44 16 0 16 C0 10.72 0 5.44 0 0 Z " fill="#122435" transform="translate(304,560)"/>
<path d="M0 0 C5.28 0 10.56 0 16 0 C16 5.28 16 10.56 16 16 C10.72 16 5.44 16 0 16 C0 10.72 0 5.44 0 0 Z " fill="#D0CEBF" transform="translate(80,560)"/>
<path d="M0 0 C5.28 0 10.56 0 16 0 C16 5.28 16 10.56 16 16 C10.72 16 5.44 16 0 16 C0 10.72 0 5.44 0 0 Z " fill="#FFFFFF" transform="translate(848,544)"/>
<path d="M0 0 C5.28 0 10.56 0 16 0 C16 5.28 16 10.56 16 16 C10.72 16 5.44 16 0 16 C0 10.72 0 5.44 0 0 Z " fill="#E4E6DA" transform="translate(736,544)"/>
<path d="M0 0 C5.28 0 10.56 0 16 0 C16 5.28 16 10.56 16 16 C10.72 16 5.44 16 0 16 C0 10.72 0 5.44 0 0 Z " fill="#122435" transform="translate(400,544)"/>
<path d="M0 0 C5.28 0 10.56 0 16 0 C16 5.28 16 10.56 16 16 C10.72 16 5.44 16 0 16 C0 10.72 0 5.44 0 0 Z " fill="#FF8D53" transform="translate(384,544)"/>
<path d="M0 0 C5.28 0 10.56 0 16 0 C16 5.28 16 10.56 16 16 C10.72 16 5.44 16 0 16 C0 10.72 0 5.44 0 0 Z " fill="#FFCAAE" transform="translate(336,544)"/>
<path d="M0 0 C5.28 0 10.56 0 16 0 C16 5.28 16 10.56 16 16 C10.72 16 5.44 16 0 16 C0 10.72 0 5.44 0 0 Z " fill="#122435" transform="translate(320,544)"/>
<path d="M0 0 C5.28 0 10.56 0 16 0 C16 5.28 16 10.56 16 16 C10.72 16 5.44 16 0 16 C0 10.72 0 5.44 0 0 Z " fill="#D0CEBF" transform="translate(112,544)"/>
<path d="M0 0 C5.28 0 10.56 0 16 0 C16 5.28 16 10.56 16 16 C10.72 16 5.44 16 0 16 C0 10.72 0 5.44 0 0 Z " fill="#E4E6DA" transform="translate(752,528)"/>
<path d="M0 0 C5.28 0 10.56 0 16 0 C16 5.28 16 10.56 16 16 C10.72 16 5.44 16 0 16 C0 10.72 0 5.44 0 0 Z " fill="#CD6129" transform="translate(592,528)"/>
<path d="M0 0 C5.28 0 10.56 0 16 0 C16 5.28 16 10.56 16 16 C10.72 16 5.44 16 0 16 C0 10.72 0 5.44 0 0 Z " fill="#CD6129" transform="translate(528,528)"/>
<path d="M0 0 C5.28 0 10.56 0 16 0 C16 5.28 16 10.56 16 16 C10.72 16 5.44 16 0 16 C0 10.72 0 5.44 0 0 Z " fill="#122435" transform="translate(384,528)"/>
<path d="M0 0 C5.28 0 10.56 0 16 0 C16 5.28 16 10.56 16 16 C10.72 16 5.44 16 0 16 C0 10.72 0 5.44 0 0 Z " fill="#122435" transform="translate(336,528)"/>
<path d="M0 0 C5.28 0 10.56 0 16 0 C16 5.28 16 10.56 16 16 C10.72 16 5.44 16 0 16 C0 10.72 0 5.44 0 0 Z " fill="#122435" transform="translate(896,512)"/>
<path d="M0 0 C5.28 0 10.56 0 16 0 C16 5.28 16 10.56 16 16 C10.72 16 5.44 16 0 16 C0 10.72 0 5.44 0 0 Z " fill="#122435" transform="translate(816,512)"/>
<path d="M0 0 C5.28 0 10.56 0 16 0 C16 5.28 16 10.56 16 16 C10.72 16 5.44 16 0 16 C0 10.72 0 5.44 0 0 Z " fill="#D0CEBF" transform="translate(736,512)"/>
<path d="M0 0 C5.28 0 10.56 0 16 0 C16 5.28 16 10.56 16 16 C10.72 16 5.44 16 0 16 C0 10.72 0 5.44 0 0 Z " fill="#EB7F48" transform="translate(592,512)"/>
<path d="M0 0 C5.28 0 10.56 0 16 0 C16 5.28 16 10.56 16 16 C10.72 16 5.44 16 0 16 C0 10.72 0 5.44 0 0 Z " fill="#EB7F48" transform="translate(528,512)"/>
<path d="M0 0 C5.28 0 10.56 0 16 0 C16 5.28 16 10.56 16 16 C10.72 16 5.44 16 0 16 C0 10.72 0 5.44 0 0 Z " fill="#122435" transform="translate(128,496)"/>
<path d="M0 0 C5.28 0 10.56 0 16 0 C16 5.28 16 10.56 16 16 C10.72 16 5.44 16 0 16 C0 10.72 0 5.44 0 0 Z " fill="#122435" transform="translate(240,480)"/>
<path d="M0 0 C5.28 0 10.56 0 16 0 C16 5.28 16 10.56 16 16 C10.72 16 5.44 16 0 16 C0 10.72 0 5.44 0 0 Z " fill="#FFFFFF" transform="translate(96,480)"/>
<path d="M0 0 C5.28 0 10.56 0 16 0 C16 5.28 16 10.56 16 16 C10.72 16 5.44 16 0 16 C0 10.72 0 5.44 0 0 Z " fill="#122435" transform="translate(672,464)"/>
<path d="M0 0 C5.28 0 10.56 0 16 0 C16 5.28 16 10.56 16 16 C10.72 16 5.44 16 0 16 C0 10.72 0 5.44 0 0 Z " fill="#122435" transform="translate(256,464)"/>
<path d="M0 0 C5.28 0 10.56 0 16 0 C16 5.28 16 10.56 16 16 C10.72 16 5.44 16 0 16 C0 10.72 0 5.44 0 0 Z " fill="#122435" transform="translate(896,432)"/>
<path d="M0 0 C5.28 0 10.56 0 16 0 C16 5.28 16 10.56 16 16 C10.72 16 5.44 16 0 16 C0 10.72 0 5.44 0 0 Z " fill="#122435" transform="translate(816,432)"/>
<path d="M0 0 C5.28 0 10.56 0 16 0 C16 5.28 16 10.56 16 16 C10.72 16 5.44 16 0 16 C0 10.72 0 5.44 0 0 Z " fill="#122435" transform="translate(624,432)"/>
<path d="M0 0 C5.28 0 10.56 0 16 0 C16 5.28 16 10.56 16 16 C10.72 16 5.44 16 0 16 C0 10.72 0 5.44 0 0 Z " fill="#122435" transform="translate(304,432)"/>
<path d="M0 0 C5.28 0 10.56 0 16 0 C16 5.28 16 10.56 16 16 C10.72 16 5.44 16 0 16 C0 10.72 0 5.44 0 0 Z " fill="#122435" transform="translate(576,384)"/>
<path d="M0 0 C5.28 0 10.56 0 16 0 C16 5.28 16 10.56 16 16 C10.72 16 5.44 16 0 16 C0 10.72 0 5.44 0 0 Z " fill="#122435" transform="translate(352,384)"/>
<path d="M0 0 C5.28 0 10.56 0 16 0 C16 5.28 16 10.56 16 16 C10.72 16 5.44 16 0 16 C0 10.72 0 5.44 0 0 Z " fill="#122435" transform="translate(592,368)"/>
<path d="M0 0 C5.28 0 10.56 0 16 0 C16 5.28 16 10.56 16 16 C10.72 16 5.44 16 0 16 C0 10.72 0 5.44 0 0 Z " fill="#122435" transform="translate(336,368)"/>
<path d="M0 0 C5.28 0 10.56 0 16 0 C16 5.28 16 10.56 16 16 C10.72 16 5.44 16 0 16 C0 10.72 0 5.44 0 0 Z " fill="#122435" transform="translate(608,352)"/>
<path d="M0 0 C5.28 0 10.56 0 16 0 C16 5.28 16 10.56 16 16 C10.72 16 5.44 16 0 16 C0 10.72 0 5.44 0 0 Z " fill="#122435" transform="translate(320,352)"/>
<path d="M0 0 C5.28 0 10.56 0 16 0 C16 5.28 16 10.56 16 16 C10.72 16 5.44 16 0 16 C0 10.72 0 5.44 0 0 Z " fill="#122435" transform="translate(624,336)"/>
<path d="M0 0 C5.28 0 10.56 0 16 0 C16 5.28 16 10.56 16 16 C10.72 16 5.44 16 0 16 C0 10.72 0 5.44 0 0 Z " fill="#122435" transform="translate(304,336)"/>
<path d="M0 0 C5.28 0 10.56 0 16 0 C16 5.28 16 10.56 16 16 C10.72 16 5.44 16 0 16 C0 10.72 0 5.44 0 0 Z " fill="#122435" transform="translate(944,288)"/>
<path d="M0 0 C5.28 0 10.56 0 16 0 C16 5.28 16 10.56 16 16 C10.72 16 5.44 16 0 16 C0 10.72 0 5.44 0 0 Z " fill="#122435" transform="translate(784,288)"/>
<path d="M0 0 C5.28 0 10.56 0 16 0 C16 5.28 16 10.56 16 16 C10.72 16 5.44 16 0 16 C0 10.72 0 5.44 0 0 Z " fill="#FFB894" transform="translate(512,256)"/>
<path d="M0 0 C5.28 0 10.56 0 16 0 C16 5.28 16 10.56 16 16 C10.72 16 5.44 16 0 16 C0 10.72 0 5.44 0 0 Z " fill="#FFB894" transform="translate(384,256)"/>
<path d="M0 0 C5.28 0 10.56 0 16 0 C16 5.28 16 10.56 16 16 C10.72 16 5.44 16 0 16 C0 10.72 0 5.44 0 0 Z " fill="#CD6129" transform="translate(528,240)"/>
<path d="M0 0 C5.28 0 10.56 0 16 0 C16 5.28 16 10.56 16 16 C10.72 16 5.44 16 0 16 C0 10.72 0 5.44 0 0 Z " fill="#CD6129" transform="translate(400,240)"/>
<path d="M0 0 C5.28 0 10.56 0 16 0 C16 5.28 16 10.56 16 16 C10.72 16 5.44 16 0 16 C0 10.72 0 5.44 0 0 Z " fill="#E4E6DA" transform="translate(320,240)"/>
<path d="M0 0 C5.28 0 10.56 0 16 0 C16 5.28 16 10.56 16 16 C10.72 16 5.44 16 0 16 C0 10.72 0 5.44 0 0 Z " fill="#FFB894" transform="translate(544,224)"/>
<path d="M0 0 C5.28 0 10.56 0 16 0 C16 5.28 16 10.56 16 16 C10.72 16 5.44 16 0 16 C0 10.72 0 5.44 0 0 Z " fill="#FFB894" transform="translate(416,224)"/>
<path d="M0 0 C5.28 0 10.56 0 16 0 C16 5.28 16 10.56 16 16 C10.72 16 5.44 16 0 16 C0 10.72 0 5.44 0 0 Z " fill="#E4E6DA" transform="translate(160,208)"/>
<path d="M0 0 C5.28 0 10.56 0 16 0 C16 5.28 16 10.56 16 16 C10.72 16 5.44 16 0 16 C0 10.72 0 5.44 0 0 Z " fill="#373737" transform="translate(912,160)"/>
<path d="M0 0 C5.28 0 10.56 0 16 0 C16 5.28 16 10.56 16 16 C10.72 16 5.44 16 0 16 C0 10.72 0 5.44 0 0 Z " fill="#122435" transform="translate(624,144)"/>
<path d="M0 0 C5.28 0 10.56 0 16 0 C16 5.28 16 10.56 16 16 C10.72 16 5.44 16 0 16 C0 10.72 0 5.44 0 0 Z " fill="#122435" transform="translate(304,144)"/>
<path d="M0 0 C5.28 0 10.56 0 16 0 C16 5.28 16 10.56 16 16 C10.72 16 5.44 16 0 16 C0 10.72 0 5.44 0 0 Z " fill="#122435" transform="translate(944,128)"/>
<path d="M0 0 C5.28 0 10.56 0 16 0 C16 5.28 16 10.56 16 16 C10.72 16 5.44 16 0 16 C0 10.72 0 5.44 0 0 Z " fill="#122435" transform="translate(784,128)"/>
<path d="M0 0 C5.28 0 10.56 0 16 0 C16 5.28 16 10.56 16 16 C10.72 16 5.44 16 0 16 C0 10.72 0 5.44 0 0 Z " fill="#122435" transform="translate(608,128)"/>
<path d="M0 0 C5.28 0 10.56 0 16 0 C16 5.28 16 10.56 16 16 C10.72 16 5.44 16 0 16 C0 10.72 0 5.44 0 0 Z " fill="#122435" transform="translate(320,128)"/>
<path d="M0 0 C5.28 0 10.56 0 16 0 C16 5.28 16 10.56 16 16 C10.72 16 5.44 16 0 16 C0 10.72 0 5.44 0 0 Z " fill="#122435" transform="translate(592,112)"/>
<path d="M0 0 C5.28 0 10.56 0 16 0 C16 5.28 16 10.56 16 16 C10.72 16 5.44 16 0 16 C0 10.72 0 5.44 0 0 Z " fill="#122435" transform="translate(336,112)"/>
<path d="M0 0 C5.28 0 10.56 0 16 0 C16 5.28 16 10.56 16 16 C10.72 16 5.44 16 0 16 C0 10.72 0 5.44 0 0 Z " fill="#122435" transform="translate(576,96)"/>
<path d="M0 0 C5.28 0 10.56 0 16 0 C16 5.28 16 10.56 16 16 C10.72 16 5.44 16 0 16 C0 10.72 0 5.44 0 0 Z " fill="#122435" transform="translate(352,96)"/>
</svg>
